<svg width="207" height="334" viewBox="0 0 207 334" fill="none" xmlns="http://www.w3.org/2000/svg"><path d="M34.3969 292.39H40.9218V323.947H34.3969V292.39Z" fill="white"></path><path d="M59.5645 320.223C56.9545 320.223 54.6242 319.851 52.5735 319.013C50.616 318.175 49.0314 317.058 47.9129 315.476C46.7943 313.893 46.235 312.031 46.235 309.797C46.235 307.656 46.7943 305.701 47.8197 304.119C48.9382 302.536 50.4296 301.326 52.4803 300.395C54.4378 299.558 56.8613 299.092 59.5645 299.092C60.3102 299.092 61.0559 299.185 61.7084 299.278C62.4541 299.371 63.1066 299.464 63.759 299.651L76.0631 299.744V304.491C74.3853 304.491 72.7075 304.305 71.0296 303.84C69.3518 303.374 67.7672 302.909 66.5554 302.443L66.369 302.071C67.4875 302.629 68.5129 303.188 69.5382 304.026C70.4704 304.77 71.3093 305.701 71.8686 306.632C72.4278 307.656 72.8007 308.773 72.8007 310.076C72.8007 312.217 72.2414 313.986 71.2161 315.476C70.0975 316.965 68.6061 318.175 66.6487 318.92C64.598 319.851 62.2676 320.223 59.5645 320.223ZM67.7672 333.907V332.697C67.7672 331.207 67.3011 330.183 66.369 329.532C65.4369 328.973 64.1319 328.694 62.4541 328.694H54.9038C53.4124 328.694 52.2007 328.601 51.1753 328.322C50.15 328.136 49.4043 327.763 48.845 327.391C48.2857 326.925 47.8197 326.46 47.54 325.901C47.2604 325.343 47.1672 324.691 47.1672 324.04C47.1672 322.736 47.6333 321.712 48.4722 321.061C49.3111 320.409 50.4296 319.944 51.921 319.758C53.3192 319.571 54.9038 319.478 56.6749 319.571L59.7509 320.13C57.7002 320.223 56.2088 320.409 55.1835 320.689C54.1581 320.968 53.6921 321.526 53.6921 322.364C53.6921 322.83 53.8785 323.202 54.2513 323.481C54.6242 323.76 55.1835 323.853 55.9292 323.853H63.8523C65.9962 323.853 67.8604 324.133 69.4451 324.598C71.0297 325.064 72.1482 325.901 72.9871 327.018C73.826 328.136 74.1989 329.718 74.1989 331.673V334H67.7672V333.907ZM59.5645 315.662C60.9627 315.662 62.1744 315.476 63.293 315.01C64.3183 314.545 65.1573 313.893 65.7165 313.055C66.2758 312.217 66.5554 311.194 66.5554 309.983C66.5554 308.773 66.2758 307.656 65.7165 306.818C65.1573 305.981 64.3183 305.236 63.293 304.77C62.2676 304.305 61.0559 304.026 59.5645 304.026C58.1663 304.026 56.9545 304.305 55.836 304.77C54.7174 305.236 53.9717 305.887 53.3192 306.818C52.7599 307.656 52.4803 308.773 52.4803 309.983C52.4803 311.194 52.7599 312.217 53.3192 313.055C53.8785 313.893 54.7174 314.545 55.7428 315.01C56.9545 315.382 58.1663 315.662 59.5645 315.662Z" fill="white"></path><path d="M79.3254 299.651H85.6639V323.947H79.3254V299.651ZM96.9427 299.185C98.4341 299.185 99.8323 299.371 101.137 299.744C102.442 300.116 103.561 300.768 104.493 301.512C105.425 302.35 106.171 303.374 106.73 304.584C107.289 305.794 107.476 307.284 107.476 309.053V323.947H101.137V310.263C101.137 308.215 100.671 306.725 99.6458 305.794C98.6205 304.864 97.0358 304.398 94.7987 304.398C93.1209 304.398 91.5363 304.77 90.2313 305.329C88.8332 305.981 87.7146 306.818 86.8757 307.749C86.0367 308.773 85.5707 309.797 85.3843 310.821L85.2911 308.308C85.4775 307.191 85.8503 306.074 86.4096 304.957C86.9689 303.84 87.8078 302.909 88.7399 301.978C89.7653 301.047 90.8838 300.395 92.282 299.837C93.6802 299.278 95.1716 299.185 96.9427 299.185Z" fill="white"></path><path d="M119.407 289.039V294.624H112.043V289.039H119.407ZM112.603 299.651H118.941V323.947H112.603V299.651Z" fill="white"></path><path d="M122.577 299.65H141.405V304.584H122.577V299.65ZM128.822 293.041H135.16V323.946H128.822V293.041Z" fill="white"></path><path d="M166.293 315.848H172.445C172.166 317.524 171.513 319.013 170.394 320.316C169.276 321.619 167.784 322.643 165.827 323.388C163.87 324.133 161.539 324.505 158.836 324.505C155.76 324.505 152.964 324.04 150.633 323.016C148.21 321.992 146.439 320.595 145.041 318.734C143.736 316.872 143.083 314.545 143.083 311.938C143.083 309.239 143.736 307.005 145.041 305.05C146.346 303.188 148.117 301.699 150.447 300.675C152.777 299.651 155.48 299.185 158.65 299.185C161.819 299.185 164.522 299.651 166.573 300.675C168.717 301.699 170.301 303.188 171.327 305.236C172.352 307.284 172.818 309.89 172.632 313.055H149.515C149.701 314.265 150.167 315.383 150.913 316.406C151.659 317.43 152.684 318.175 154.082 318.827C155.387 319.385 156.972 319.665 158.836 319.665C160.887 319.665 162.565 319.292 163.87 318.641C165.081 317.896 165.92 316.965 166.293 315.848ZM158.277 303.933C155.946 303.933 153.989 304.491 152.591 305.515C151.099 306.539 150.167 307.842 149.794 309.332H166.293C166.107 307.749 165.361 306.446 163.963 305.422C162.565 304.491 160.7 303.933 158.277 303.933Z" fill="white"></path><path d="M103.467 44.9614C115.212 44.9614 126.211 49.5227 134.507 57.8076L186.054 109.285C194.35 117.57 198.917 128.555 198.917 140.284C198.917 152.013 194.35 162.997 186.054 171.282L134.507 222.76C126.211 231.045 115.212 235.606 103.467 235.606C91.7226 235.606 80.7234 231.045 72.4275 222.76L20.8808 171.282C12.5849 162.997 8.01747 152.013 8.01747 140.284C8.01747 128.555 12.5849 117.57 20.8808 109.285L72.4275 57.8076C80.7234 49.5227 91.7226 44.9614 103.467 44.9614ZM103.467 37.0489C90.2312 37.0489 76.9017 42.0757 66.8347 52.2223L15.2881 103.7C-4.93912 123.9 -4.93912 156.667 15.2881 176.96L66.8347 228.438C76.9949 238.585 90.2312 243.612 103.467 243.612C116.704 243.612 130.033 238.585 140.1 228.438L191.647 176.96C211.874 156.76 211.874 123.993 191.647 103.7L140.1 52.2223C130.033 42.0757 116.797 37.0489 103.467 37.0489Z" fill="#0B733B"></path><path d="M191.74 176.96L140.1 228.438C119.873 248.638 87.0619 248.638 66.7415 228.438L15.1948 176.96C-0.278482 161.508 -3.91377 138.794 4.19575 119.897C6.71249 119.246 9.32242 118.967 12.0256 118.967C29.8292 118.967 44.184 133.395 44.184 151.082C44.184 156.016 43.0655 160.577 41.108 164.766C43.6247 163.928 46.2347 163.463 49.0311 163.463C60.5895 163.463 70.2836 171.375 72.8935 182.08C73.7325 181.894 74.5714 181.894 75.5036 181.894C84.452 181.894 91.7226 188.969 92.0954 197.812C95.5443 196.044 99.366 195.02 103.467 195.02C107.569 195.02 111.484 196.044 114.839 197.812C115.212 188.969 122.483 181.894 131.431 181.894C132.27 181.894 133.202 181.987 134.041 182.08C136.651 171.375 146.345 163.463 157.904 163.463C160.7 163.463 163.31 163.928 165.827 164.766C163.869 160.577 162.751 156.016 162.751 151.082C162.751 133.302 177.106 118.967 194.909 118.967C197.612 118.967 200.222 119.339 202.739 119.897C210.849 138.701 207.213 161.508 191.74 176.96Z" fill="url(#paint0_radial)"></path><path d="M115.026 145.125H103.467H92.0021L82.308 231.697H103.467H124.627L115.026 145.125Z" fill="url(#paint1_linear)"></path><path d="M108.967 145.125H103.468H98.0612L93.4938 231.697H103.468H113.535L108.967 145.125Z" fill="url(#paint2_linear)"></path><path d="M103.467 4.57764e-05C97.3153 4.57764e-05 82.308 31.1846 82.308 44.6824C82.308 68.6992 82.308 140.284 82.308 140.284H103.467H124.627C124.627 140.284 124.627 68.6992 124.627 44.6824C124.627 31.2777 109.713 4.57764e-05 103.467 4.57764e-05Z" fill="white"></path><path d="M116.517 32.0225C115.678 31.3709 111.95 28.5783 103.467 28.5783C94.8918 28.5783 91.1633 31.3709 90.4176 32.0225C90.3244 32.1156 90.2312 32.2087 90.2312 32.3949V34.7221C90.2312 35.0945 90.6973 35.3737 90.9769 35.0944C92.4683 34.0705 96.29 32.1156 103.467 32.1156C110.645 32.1156 114.466 34.0705 115.958 35.0944C116.331 35.2806 116.704 35.0945 116.704 34.7221V32.3949C116.704 32.3018 116.704 32.1156 116.517 32.0225Z" fill="#04D361"></path><path d="M82.3082 100.815C82.3082 100.815 56.8611 121.108 55.2765 150.151C55.1833 151.734 56.7679 153.037 58.2593 152.479C65.7164 150.151 70.843 140.284 82.3082 140.284V100.815Z" fill="#04D361"></path><path d="M124.627 100.815C124.627 100.815 150.074 121.108 151.658 150.151C151.752 151.734 150.167 153.037 148.676 152.479C141.219 150.151 136.092 140.284 124.627 140.284V100.815Z" fill="#04D361"></path><path d="M103.467 140.284H82.308L86.8754 150.059C86.8754 150.059 99.4592 151.362 103.467 151.362C107.475 151.362 120.059 150.059 120.059 150.059L124.627 140.284H103.467Z" fill="#04D361"></path><path d="M103.468 100.815C101.137 100.815 98.3408 125.018 98.3408 151.082C98.3408 155.178 100.951 159.274 103.468 159.274C106.077 159.274 108.594 155.178 108.594 151.082C108.687 125.018 105.798 100.815 103.468 100.815Z" fill="#04D361"></path><path d="M93.587 255.713L79.6983 241.843C74.1987 236.351 74.1987 227.6 79.6983 222.108L93.587 208.238C99.0865 202.746 107.849 202.746 113.348 208.238L127.237 222.108C132.736 227.6 132.736 236.351 127.237 241.843L113.348 255.713C107.942 261.112 99.0865 261.112 93.587 255.713Z" fill="#06B656"></path><path d="M113.628 219.315L110.272 218.85C110.179 218.85 110.086 218.85 109.993 218.943L108.594 220.805C108.501 220.898 108.501 221.084 108.501 221.177C108.501 221.27 108.408 221.456 108.315 221.363L107.103 221.084C106.917 221.084 106.73 221.084 106.637 221.27L101.976 227.228C101.883 227.321 101.697 227.414 101.603 227.321L99.8323 226.483C99.6459 226.39 99.4595 226.39 99.3663 226.483L98.4342 227.135C98.2477 227.228 98.0613 227.228 97.9681 227.135L97.502 226.948C97.2224 226.762 96.8495 226.948 96.8495 227.228L96.5699 228.624C96.4767 228.996 96.6631 229.276 96.9428 229.462L97.5952 229.834L99.7392 231.137L100.764 231.789C101.044 231.975 101.417 231.975 101.697 231.696L103.468 230.113C103.654 230.02 103.84 229.927 104.027 230.02L104.586 230.3C104.773 230.393 104.959 230.393 105.145 230.206L106.078 229.369C106.264 229.276 106.45 229.182 106.637 229.276L107.942 229.927C108.128 230.02 108.408 229.927 108.501 229.741L109.154 228.996L113.814 223.039C114.001 222.759 113.907 222.387 113.535 222.294L112.509 222.108C112.323 222.015 112.23 221.829 112.323 221.642L113.907 219.688C114.001 219.594 113.814 219.315 113.628 219.315Z" fill="white"></path><path d="M98.2477 231.323C98.1545 231.23 98.0613 231.323 98.0613 231.417L98.5273 232.72C98.5273 232.813 98.5273 232.906 98.5273 232.999L98.0613 234.675C98.0613 234.768 98.0613 234.861 98.1545 234.954L99.3663 235.885C99.4595 235.978 99.6459 235.978 99.7392 235.885L101.044 234.768C101.137 234.675 101.231 234.675 101.324 234.675L102.815 234.488C102.908 234.488 102.908 234.302 102.908 234.302L98.2477 231.323Z" fill="white"></path><path d="M97.7816 235.699C97.6884 235.605 97.5952 235.605 97.502 235.699L96.4767 236.164C96.3835 236.164 96.3834 236.257 96.3834 236.35L94.1464 241.842C94.1464 241.842 94.1463 241.842 94.2396 241.842L94.7056 241.656C94.7056 241.656 94.7056 241.656 94.7988 241.656V241.749L93.2142 244.356C93.2142 244.449 93.2142 244.449 93.3074 244.449L99.0866 238.584C99.1798 238.491 99.1798 238.491 99.1798 238.398L99.2731 236.909C99.2731 236.816 99.273 236.722 99.1798 236.629L97.7816 235.699Z" fill="white"></path><defs><radialGradient id="paint0_radial" cx="0" cy="0" r="1" gradientUnits="userSpaceOnUse" gradientTransform="translate(103.203 139.537) scale(133.43 133.251)"><stop stop-color="#68E5A0"></stop><stop offset="0.00567427" stop-color="#04D361"></stop><stop offset="0.584253" stop-color="#04D361" stop-opacity="0"></stop></radialGradient><linearGradient id="paint1_linear" x1="103.487" y1="145.139" x2="103.487" y2="258.616" gradientUnits="userSpaceOnUse"><stop stop-color="#06B656"></stop><stop offset="0.380208" stop-color="#08994A" stop-opacity="0"></stop></linearGradient><linearGradient id="paint2_linear" x1="103.487" y1="145.139" x2="103.487" y2="258.616" gradientUnits="userSpaceOnUse"><stop stop-color="#06B656"></stop><stop offset="0.4633" stop-color="#08994A" stop-opacity="0"></stop></linearGradient></defs></svg>