<svg width="448" height="402" viewBox="0 0 448 402" fill="none" xmlns="http://www.w3.org/2000/svg">
<path d="M0 0H448V383C448 393.493 439.493 402 429 402H19C8.5066 402 0 393.493 0 383V0Z" fill="url(#paint0_linear)"/>
<g clip-path="url(#clip0)">
<path d="M154.397 331.39H160.922V362.947H154.397V331.39Z" fill="white"/>
<path d="M179.564 359.223C176.954 359.223 174.624 358.851 172.573 358.013C170.616 357.175 169.031 356.058 167.913 354.476C166.794 352.893 166.235 351.031 166.235 348.797C166.235 346.656 166.794 344.701 167.82 343.119C168.938 341.536 170.43 340.326 172.48 339.395C174.438 338.558 176.861 338.092 179.564 338.092C180.31 338.092 181.056 338.185 181.708 338.278C182.454 338.371 183.107 338.464 183.759 338.651L196.063 338.744V343.491C194.385 343.491 192.707 343.305 191.03 342.84C189.352 342.374 187.767 341.909 186.555 341.443L186.369 341.071C187.487 341.629 188.513 342.188 189.538 343.026C190.47 343.77 191.309 344.701 191.869 345.632C192.428 346.656 192.801 347.773 192.801 349.076C192.801 351.217 192.241 352.986 191.216 354.476C190.097 355.965 188.606 357.175 186.649 357.92C184.598 358.851 182.268 359.223 179.564 359.223ZM187.767 372.907V371.697C187.767 370.207 187.301 369.183 186.369 368.532C185.437 367.973 184.132 367.694 182.454 367.694H174.904C173.412 367.694 172.201 367.601 171.175 367.322C170.15 367.136 169.404 366.763 168.845 366.391C168.286 365.925 167.82 365.46 167.54 364.901C167.26 364.343 167.167 363.691 167.167 363.04C167.167 361.736 167.633 360.712 168.472 360.061C169.311 359.409 170.43 358.944 171.921 358.758C173.319 358.571 174.904 358.478 176.675 358.571L179.751 359.13C177.7 359.223 176.209 359.409 175.183 359.689C174.158 359.968 173.692 360.526 173.692 361.364C173.692 361.83 173.878 362.202 174.251 362.481C174.624 362.76 175.183 362.853 175.929 362.853H183.852C185.996 362.853 187.86 363.133 189.445 363.598C191.03 364.064 192.148 364.901 192.987 366.018C193.826 367.136 194.199 368.718 194.199 370.673V373H187.767V372.907ZM179.564 354.662C180.963 354.662 182.174 354.476 183.293 354.01C184.318 353.545 185.157 352.893 185.716 352.055C186.276 351.217 186.555 350.194 186.555 348.983C186.555 347.773 186.276 346.656 185.716 345.818C185.157 344.981 184.318 344.236 183.293 343.77C182.268 343.305 181.056 343.026 179.564 343.026C178.166 343.026 176.954 343.305 175.836 343.77C174.717 344.236 173.972 344.887 173.319 345.818C172.76 346.656 172.48 347.773 172.48 348.983C172.48 350.194 172.76 351.217 173.319 352.055C173.878 352.893 174.717 353.545 175.743 354.01C176.954 354.382 178.166 354.662 179.564 354.662Z" fill="white"/>
<path d="M199.325 338.651H205.664V362.947H199.325V338.651ZM216.943 338.185C218.434 338.185 219.832 338.371 221.137 338.744C222.442 339.116 223.561 339.768 224.493 340.512C225.425 341.35 226.171 342.374 226.73 343.584C227.289 344.794 227.476 346.284 227.476 348.053V362.947H221.137V349.263C221.137 347.215 220.671 345.725 219.646 344.794C218.621 343.864 217.036 343.398 214.799 343.398C213.121 343.398 211.536 343.77 210.231 344.329C208.833 344.981 207.715 345.818 206.876 346.749C206.037 347.773 205.571 348.797 205.384 349.821L205.291 347.308C205.478 346.191 205.85 345.074 206.41 343.957C206.969 342.84 207.808 341.909 208.74 340.978C209.765 340.047 210.884 339.395 212.282 338.837C213.68 338.278 215.172 338.185 216.943 338.185Z" fill="white"/>
<path d="M239.407 328.039V333.624H232.043V328.039H239.407ZM232.603 338.651H238.941V362.947H232.603V338.651Z" fill="white"/>
<path d="M242.577 338.65H261.405V343.584H242.577V338.65ZM248.822 332.041H255.16V362.946H248.822V332.041Z" fill="white"/>
<path d="M286.293 354.848H292.445C292.166 356.524 291.513 358.013 290.394 359.316C289.276 360.619 287.784 361.643 285.827 362.388C283.87 363.133 281.539 363.505 278.836 363.505C275.76 363.505 272.964 363.04 270.633 362.016C268.21 360.992 266.439 359.595 265.041 357.734C263.736 355.872 263.083 353.545 263.083 350.938C263.083 348.239 263.736 346.005 265.041 344.05C266.346 342.188 268.117 340.699 270.447 339.675C272.777 338.651 275.48 338.185 278.65 338.185C281.819 338.185 284.522 338.651 286.573 339.675C288.717 340.699 290.301 342.188 291.327 344.236C292.352 346.284 292.818 348.89 292.632 352.055H269.515C269.701 353.265 270.167 354.383 270.913 355.406C271.659 356.43 272.684 357.175 274.082 357.827C275.387 358.385 276.972 358.665 278.836 358.665C280.887 358.665 282.565 358.292 283.87 357.641C285.081 356.896 285.92 355.965 286.293 354.848ZM278.277 342.933C275.946 342.933 273.989 343.491 272.591 344.515C271.099 345.539 270.167 346.842 269.794 348.332H286.293C286.107 346.749 285.361 345.446 283.963 344.422C282.565 343.491 280.7 342.933 278.277 342.933Z" fill="white"/>
<path d="M223.467 83.9614C235.212 83.9614 246.211 88.5227 254.507 96.8076L306.054 148.285C314.35 156.57 318.917 167.555 318.917 179.284C318.917 191.013 314.35 201.997 306.054 210.282L254.507 261.76C246.211 270.045 235.212 274.606 223.467 274.606C211.723 274.606 200.723 270.045 192.427 261.76L140.881 210.282C132.585 201.997 128.017 191.013 128.017 179.284C128.017 167.555 132.585 156.57 140.881 148.285L192.427 96.8076C200.723 88.5227 211.723 83.9614 223.467 83.9614ZM223.467 76.0489C210.231 76.0489 196.902 81.0757 186.835 91.2223L135.288 142.7C115.061 162.9 115.061 195.667 135.288 215.96L186.835 267.438C196.995 277.585 210.231 282.612 223.467 282.612C236.704 282.612 250.033 277.585 260.1 267.438L311.647 215.96C331.874 195.76 331.874 162.993 311.647 142.7L260.1 91.2223C250.033 81.0757 236.797 76.0489 223.467 76.0489Z" fill="#0B733B"/>
<path d="M311.74 215.96L260.1 267.438C239.873 287.638 207.062 287.638 186.742 267.438L135.195 215.96C119.722 200.508 116.086 177.794 124.196 158.897C126.712 158.246 129.322 157.967 132.026 157.967C149.829 157.967 164.184 172.395 164.184 190.082C164.184 195.016 163.066 199.577 161.108 203.766C163.625 202.928 166.235 202.463 169.031 202.463C180.59 202.463 190.284 210.375 192.894 221.08C193.733 220.894 194.571 220.894 195.504 220.894C204.452 220.894 211.723 227.969 212.095 236.812C215.544 235.044 219.366 234.02 223.467 234.02C227.569 234.02 231.484 235.044 234.839 236.812C235.212 227.969 242.483 220.894 251.431 220.894C252.27 220.894 253.202 220.987 254.041 221.08C256.651 210.375 266.345 202.463 277.904 202.463C280.7 202.463 283.31 202.928 285.827 203.766C283.869 199.577 282.751 195.016 282.751 190.082C282.751 172.302 297.106 157.967 314.909 157.967C317.612 157.967 320.222 158.339 322.739 158.897C330.849 177.701 327.213 200.508 311.74 215.96Z" fill="url(#paint1_radial)"/>
<path d="M235.026 184.125H223.467H212.002L202.308 270.697H223.467H244.627L235.026 184.125Z" fill="url(#paint2_linear)"/>
<path d="M228.967 184.125H223.468H218.061L213.494 270.697H223.468H233.535L228.967 184.125Z" fill="url(#paint3_linear)"/>
<path d="M223.467 39C217.315 39 202.308 70.1846 202.308 83.6824C202.308 107.699 202.308 179.284 202.308 179.284H223.467H244.627C244.627 179.284 244.627 107.699 244.627 83.6824C244.627 70.2777 229.713 39 223.467 39Z" fill="white"/>
<path d="M236.517 71.0225C235.678 70.3709 231.95 67.5783 223.467 67.5783C214.892 67.5783 211.163 70.3709 210.418 71.0225C210.324 71.1156 210.231 71.2087 210.231 71.3949V73.7221C210.231 74.0945 210.697 74.3737 210.977 74.0944C212.468 73.0705 216.29 71.1156 223.467 71.1156C230.645 71.1156 234.466 73.0705 235.958 74.0944C236.331 74.2806 236.704 74.0945 236.704 73.7221V71.3949C236.704 71.3018 236.704 71.1156 236.517 71.0225Z" fill="#04D361"/>
<path d="M202.308 139.815C202.308 139.815 176.861 160.108 175.277 189.151C175.183 190.734 176.768 192.037 178.259 191.479C185.716 189.151 190.843 179.284 202.308 179.284V139.815Z" fill="#04D361"/>
<path d="M244.627 139.815C244.627 139.815 270.074 160.108 271.658 189.151C271.752 190.734 270.167 192.037 268.676 191.479C261.219 189.151 256.092 179.284 244.627 179.284V139.815Z" fill="#04D361"/>
<path d="M223.467 179.284H202.308L206.875 189.059C206.875 189.059 219.459 190.362 223.467 190.362C227.475 190.362 240.059 189.059 240.059 189.059L244.627 179.284H223.467Z" fill="#04D361"/>
<path d="M223.468 139.815C221.137 139.815 218.341 164.018 218.341 190.082C218.341 194.178 220.951 198.274 223.468 198.274C226.077 198.274 228.594 194.178 228.594 190.082C228.687 164.018 225.798 139.815 223.468 139.815Z" fill="#04D361"/>
<path d="M213.587 294.713L199.698 280.843C194.199 275.351 194.199 266.6 199.698 261.108L213.587 247.238C219.087 241.746 227.849 241.746 233.348 247.238L247.237 261.108C252.736 266.6 252.736 275.351 247.237 280.843L233.348 294.713C227.942 300.112 219.087 300.112 213.587 294.713Z" fill="#06B656"/>
<path d="M233.628 258.315L230.272 257.85C230.179 257.85 230.086 257.85 229.993 257.943L228.594 259.805C228.501 259.898 228.501 260.084 228.501 260.177C228.501 260.27 228.408 260.456 228.315 260.363L227.103 260.084C226.917 260.084 226.73 260.084 226.637 260.27L221.976 266.228C221.883 266.321 221.697 266.414 221.603 266.321L219.832 265.483C219.646 265.39 219.459 265.39 219.366 265.483L218.434 266.135C218.248 266.228 218.061 266.228 217.968 266.135L217.502 265.948C217.222 265.762 216.849 265.948 216.849 266.228L216.57 267.624C216.477 267.996 216.663 268.276 216.943 268.462L217.595 268.834L219.739 270.137L220.764 270.789C221.044 270.975 221.417 270.975 221.697 270.696L223.468 269.113C223.654 269.02 223.84 268.927 224.027 269.02L224.586 269.3C224.773 269.393 224.959 269.393 225.145 269.206L226.078 268.369C226.264 268.276 226.45 268.182 226.637 268.276L227.942 268.927C228.128 269.02 228.408 268.927 228.501 268.741L229.154 267.996L233.814 262.039C234.001 261.759 233.907 261.387 233.535 261.294L232.509 261.108C232.323 261.015 232.23 260.829 232.323 260.642L233.907 258.688C234.001 258.594 233.814 258.315 233.628 258.315Z" fill="white"/>
<path d="M218.248 270.323C218.155 270.23 218.061 270.323 218.061 270.417L218.527 271.72C218.527 271.813 218.527 271.906 218.527 271.999L218.061 273.675C218.061 273.768 218.061 273.861 218.155 273.954L219.366 274.885C219.46 274.978 219.646 274.978 219.739 274.885L221.044 273.768C221.137 273.675 221.231 273.675 221.324 273.675L222.815 273.488C222.908 273.488 222.908 273.302 222.908 273.302L218.248 270.323Z" fill="white"/>
<path d="M217.782 274.699C217.688 274.605 217.595 274.605 217.502 274.699L216.477 275.164C216.383 275.164 216.383 275.257 216.383 275.35L214.146 280.842C214.146 280.842 214.146 280.842 214.24 280.842L214.706 280.656C214.706 280.656 214.706 280.656 214.799 280.656V280.749L213.214 283.356C213.214 283.449 213.214 283.449 213.307 283.449L219.087 277.584C219.18 277.491 219.18 277.491 219.18 277.398L219.273 275.909C219.273 275.816 219.273 275.722 219.18 275.629L217.782 274.699Z" fill="white"/>
</g>
<defs>
<linearGradient id="paint0_linear" x1="-108.5" y1="-101.505" x2="252.075" y2="605.065" gradientUnits="userSpaceOnUse">
<stop offset="0.117412" stop-color="#04D361" stop-opacity="0.7"/>
<stop offset="0.755208" stop-color="#064523" stop-opacity="0.7"/>
<stop offset="1" stop-color="#064523" stop-opacity="0.7"/>
</linearGradient>
<radialGradient id="paint1_radial" cx="0" cy="0" r="1" gradientUnits="userSpaceOnUse" gradientTransform="translate(223.203 178.537) scale(133.43 133.251)">
<stop stop-color="#68E5A0"/>
<stop offset="0.00567427" stop-color="#04D361"/>
<stop offset="0.584253" stop-color="#04D361" stop-opacity="0"/>
</radialGradient>
<linearGradient id="paint2_linear" x1="223.487" y1="184.139" x2="223.487" y2="297.616" gradientUnits="userSpaceOnUse">
<stop stop-color="#06B656"/>
<stop offset="0.380208" stop-color="#08994A" stop-opacity="0"/>
</linearGradient>
<linearGradient id="paint3_linear" x1="223.487" y1="184.139" x2="223.487" y2="297.616" gradientUnits="userSpaceOnUse">
<stop stop-color="#06B656"/>
<stop offset="0.4633" stop-color="#08994A" stop-opacity="0"/>
</linearGradient>
<clipPath id="clip0">
<rect width="207" height="334" fill="white" transform="translate(120 39)"/>
</clipPath>
</defs>
</svg>
