<svg width="448" height="600" viewBox="0 0 448 600" fill="none" xmlns="http://www.w3.org/2000/svg">
<path d="M0 0H448V581C448 591.493 439.493 600 429 600H19C8.5066 600 0 591.493 0 581V0Z" fill="url(#paint0_linear)"/>
<g clip-path="url(#clip0)">
<path d="M154.397 523.39H160.922V554.947H154.397V523.39Z" fill="white"/>
<path d="M179.564 551.223C176.954 551.223 174.624 550.851 172.573 550.013C170.616 549.175 169.031 548.058 167.913 546.476C166.794 544.893 166.235 543.031 166.235 540.797C166.235 538.656 166.794 536.701 167.82 535.119C168.938 533.536 170.43 532.326 172.48 531.395C174.438 530.558 176.861 530.092 179.564 530.092C180.31 530.092 181.056 530.185 181.708 530.278C182.454 530.371 183.107 530.464 183.759 530.651L196.063 530.744V535.491C194.385 535.491 192.707 535.305 191.03 534.84C189.352 534.374 187.767 533.909 186.555 533.443L186.369 533.071C187.487 533.629 188.513 534.188 189.538 535.026C190.47 535.77 191.309 536.701 191.869 537.632C192.428 538.656 192.801 539.773 192.801 541.076C192.801 543.217 192.241 544.986 191.216 546.476C190.097 547.965 188.606 549.175 186.649 549.92C184.598 550.851 182.268 551.223 179.564 551.223ZM187.767 564.907V563.697C187.767 562.207 187.301 561.183 186.369 560.532C185.437 559.973 184.132 559.694 182.454 559.694H174.904C173.412 559.694 172.201 559.601 171.175 559.322C170.15 559.136 169.404 558.763 168.845 558.391C168.286 557.925 167.82 557.46 167.54 556.901C167.26 556.343 167.167 555.691 167.167 555.04C167.167 553.736 167.633 552.712 168.472 552.061C169.311 551.409 170.43 550.944 171.921 550.758C173.319 550.571 174.904 550.478 176.675 550.571L179.751 551.13C177.7 551.223 176.209 551.409 175.183 551.689C174.158 551.968 173.692 552.526 173.692 553.364C173.692 553.83 173.878 554.202 174.251 554.481C174.624 554.76 175.183 554.853 175.929 554.853H183.852C185.996 554.853 187.86 555.133 189.445 555.598C191.03 556.064 192.148 556.901 192.987 558.018C193.826 559.136 194.199 560.718 194.199 562.673V565H187.767V564.907ZM179.564 546.662C180.963 546.662 182.174 546.476 183.293 546.01C184.318 545.545 185.157 544.893 185.716 544.055C186.276 543.217 186.555 542.194 186.555 540.983C186.555 539.773 186.276 538.656 185.716 537.818C185.157 536.981 184.318 536.236 183.293 535.77C182.268 535.305 181.056 535.026 179.564 535.026C178.166 535.026 176.954 535.305 175.836 535.77C174.717 536.236 173.972 536.887 173.319 537.818C172.76 538.656 172.48 539.773 172.48 540.983C172.48 542.194 172.76 543.217 173.319 544.055C173.878 544.893 174.717 545.545 175.743 546.01C176.954 546.382 178.166 546.662 179.564 546.662Z" fill="white"/>
<path d="M199.325 530.651H205.664V554.947H199.325V530.651ZM216.943 530.185C218.434 530.185 219.832 530.371 221.137 530.744C222.442 531.116 223.561 531.768 224.493 532.512C225.425 533.35 226.171 534.374 226.73 535.584C227.289 536.794 227.476 538.284 227.476 540.053V554.947H221.137V541.263C221.137 539.215 220.671 537.725 219.646 536.794C218.621 535.864 217.036 535.398 214.799 535.398C213.121 535.398 211.536 535.77 210.231 536.329C208.833 536.981 207.715 537.818 206.876 538.749C206.037 539.773 205.571 540.797 205.384 541.821L205.291 539.308C205.478 538.191 205.85 537.074 206.41 535.957C206.969 534.84 207.808 533.909 208.74 532.978C209.765 532.047 210.884 531.395 212.282 530.837C213.68 530.278 215.172 530.185 216.943 530.185Z" fill="white"/>
<path d="M239.407 520.039V525.624H232.043V520.039H239.407ZM232.603 530.651H238.941V554.947H232.603V530.651Z" fill="white"/>
<path d="M242.577 530.65H261.405V535.584H242.577V530.65ZM248.822 524.041H255.16V554.946H248.822V524.041Z" fill="white"/>
<path d="M286.293 546.848H292.445C292.166 548.524 291.513 550.013 290.394 551.316C289.276 552.619 287.784 553.643 285.827 554.388C283.87 555.133 281.539 555.505 278.836 555.505C275.76 555.505 272.964 555.04 270.633 554.016C268.21 552.992 266.439 551.595 265.041 549.734C263.736 547.872 263.083 545.545 263.083 542.938C263.083 540.239 263.736 538.005 265.041 536.05C266.346 534.188 268.117 532.699 270.447 531.675C272.777 530.651 275.48 530.185 278.65 530.185C281.819 530.185 284.522 530.651 286.573 531.675C288.717 532.699 290.301 534.188 291.327 536.236C292.352 538.284 292.818 540.89 292.632 544.055H269.515C269.701 545.265 270.167 546.383 270.913 547.406C271.659 548.43 272.684 549.175 274.082 549.827C275.387 550.385 276.972 550.665 278.836 550.665C280.887 550.665 282.565 550.292 283.87 549.641C285.081 548.896 285.92 547.965 286.293 546.848ZM278.277 534.933C275.946 534.933 273.989 535.491 272.591 536.515C271.099 537.539 270.167 538.842 269.794 540.332H286.293C286.107 538.749 285.361 537.446 283.963 536.422C282.565 535.491 280.7 534.933 278.277 534.933Z" fill="white"/>
<path d="M223.467 275.961C235.212 275.961 246.211 280.523 254.507 288.808L306.054 340.285C314.35 348.57 318.917 359.555 318.917 371.284C318.917 383.013 314.35 393.997 306.054 402.282L254.507 453.76C246.211 462.045 235.212 466.606 223.467 466.606C211.723 466.606 200.723 462.045 192.427 453.76L140.881 402.282C132.585 393.997 128.017 383.013 128.017 371.284C128.017 359.555 132.585 348.57 140.881 340.285L192.427 288.808C200.723 280.523 211.723 275.961 223.467 275.961ZM223.467 268.049C210.231 268.049 196.902 273.076 186.835 283.222L135.288 334.7C115.061 354.9 115.061 387.667 135.288 407.96L186.835 459.438C196.995 469.585 210.231 474.612 223.467 474.612C236.704 474.612 250.033 469.585 260.1 459.438L311.647 407.96C331.874 387.76 331.874 354.993 311.647 334.7L260.1 283.222C250.033 273.076 236.797 268.049 223.467 268.049Z" fill="#0B733B"/>
<path d="M311.74 407.96L260.1 459.438C239.873 479.638 207.062 479.638 186.742 459.438L135.195 407.96C119.722 392.508 116.086 369.794 124.196 350.897C126.712 350.246 129.322 349.967 132.026 349.967C149.829 349.967 164.184 364.395 164.184 382.082C164.184 387.016 163.066 391.577 161.108 395.766C163.625 394.928 166.235 394.463 169.031 394.463C180.59 394.463 190.284 402.375 192.894 413.08C193.733 412.894 194.571 412.894 195.504 412.894C204.452 412.894 211.723 419.969 212.095 428.812C215.544 427.044 219.366 426.02 223.467 426.02C227.569 426.02 231.484 427.044 234.839 428.812C235.212 419.969 242.483 412.894 251.431 412.894C252.27 412.894 253.202 412.987 254.041 413.08C256.651 402.375 266.345 394.463 277.904 394.463C280.7 394.463 283.31 394.928 285.827 395.766C283.869 391.577 282.751 387.016 282.751 382.082C282.751 364.302 297.106 349.967 314.909 349.967C317.612 349.967 320.222 350.339 322.739 350.897C330.849 369.701 327.213 392.508 311.74 407.96Z" fill="url(#paint1_radial)"/>
<path d="M235.026 376.125H223.467H212.002L202.308 462.697H223.467H244.627L235.026 376.125Z" fill="url(#paint2_linear)"/>
<path d="M228.967 376.125H223.468H218.061L213.494 462.697H223.468H233.535L228.967 376.125Z" fill="url(#paint3_linear)"/>
<path d="M223.467 231C217.315 231 202.308 262.185 202.308 275.682C202.308 299.699 202.308 371.284 202.308 371.284H223.467H244.627C244.627 371.284 244.627 299.699 244.627 275.682C244.627 262.278 229.713 231 223.467 231Z" fill="white"/>
<path d="M236.517 263.023C235.678 262.371 231.95 259.578 223.467 259.578C214.892 259.578 211.163 262.371 210.418 263.023C210.324 263.116 210.231 263.209 210.231 263.395V265.722C210.231 266.095 210.697 266.374 210.977 266.094C212.468 265.071 216.29 263.116 223.467 263.116C230.645 263.116 234.466 265.071 235.958 266.094C236.331 266.281 236.704 266.095 236.704 265.722V263.395C236.704 263.302 236.704 263.116 236.517 263.023Z" fill="#04D361"/>
<path d="M202.308 331.815C202.308 331.815 176.861 352.108 175.277 381.151C175.183 382.734 176.768 384.037 178.259 383.479C185.716 381.151 190.843 371.284 202.308 371.284V331.815Z" fill="#04D361"/>
<path d="M244.627 331.815C244.627 331.815 270.074 352.108 271.658 381.151C271.752 382.734 270.167 384.037 268.676 383.479C261.219 381.151 256.092 371.284 244.627 371.284V331.815Z" fill="#04D361"/>
<path d="M223.467 371.284H202.308L206.875 381.059C206.875 381.059 219.459 382.362 223.467 382.362C227.475 382.362 240.059 381.059 240.059 381.059L244.627 371.284H223.467Z" fill="#04D361"/>
<path d="M223.468 331.815C221.137 331.815 218.341 356.018 218.341 382.082C218.341 386.178 220.951 390.274 223.468 390.274C226.077 390.274 228.594 386.178 228.594 382.082C228.687 356.018 225.798 331.815 223.468 331.815Z" fill="#04D361"/>
<path d="M213.587 486.713L199.698 472.843C194.199 467.351 194.199 458.6 199.698 453.108L213.587 439.238C219.087 433.746 227.849 433.746 233.348 439.238L247.237 453.108C252.736 458.6 252.736 467.351 247.237 472.843L233.348 486.713C227.942 492.112 219.087 492.112 213.587 486.713Z" fill="#06B656"/>
<path d="M233.628 450.315L230.272 449.85C230.179 449.85 230.086 449.85 229.993 449.943L228.594 451.805C228.501 451.898 228.501 452.084 228.501 452.177C228.501 452.27 228.408 452.456 228.315 452.363L227.103 452.084C226.917 452.084 226.73 452.084 226.637 452.27L221.976 458.228C221.883 458.321 221.697 458.414 221.603 458.321L219.832 457.483C219.646 457.39 219.459 457.39 219.366 457.483L218.434 458.135C218.248 458.228 218.061 458.228 217.968 458.135L217.502 457.948C217.222 457.762 216.849 457.948 216.849 458.228L216.57 459.624C216.477 459.996 216.663 460.276 216.943 460.462L217.595 460.834L219.739 462.137L220.764 462.789C221.044 462.975 221.417 462.975 221.697 462.696L223.468 461.113C223.654 461.02 223.84 460.927 224.027 461.02L224.586 461.3C224.773 461.393 224.959 461.393 225.145 461.206L226.078 460.369C226.264 460.276 226.45 460.182 226.637 460.276L227.942 460.927C228.128 461.02 228.408 460.927 228.501 460.741L229.154 459.996L233.814 454.039C234.001 453.759 233.907 453.387 233.535 453.294L232.509 453.108C232.323 453.015 232.23 452.829 232.323 452.642L233.907 450.688C234.001 450.594 233.814 450.315 233.628 450.315Z" fill="white"/>
<path d="M218.248 462.323C218.155 462.23 218.061 462.323 218.061 462.417L218.527 463.72C218.527 463.813 218.527 463.906 218.527 463.999L218.061 465.675C218.061 465.768 218.061 465.861 218.155 465.954L219.366 466.885C219.46 466.978 219.646 466.978 219.739 466.885L221.044 465.768C221.137 465.675 221.231 465.675 221.324 465.675L222.815 465.488C222.908 465.488 222.908 465.302 222.908 465.302L218.248 462.323Z" fill="white"/>
<path d="M217.782 466.699C217.688 466.605 217.595 466.605 217.502 466.699L216.477 467.164C216.383 467.164 216.383 467.257 216.383 467.35L214.146 472.842C214.146 472.842 214.146 472.842 214.24 472.842L214.706 472.656C214.706 472.656 214.706 472.656 214.799 472.656V472.749L213.214 475.356C213.214 475.449 213.214 475.449 213.307 475.449L219.087 469.584C219.18 469.491 219.18 469.491 219.18 469.398L219.273 467.909C219.273 467.816 219.273 467.722 219.18 467.629L217.782 466.699Z" fill="white"/>
</g>
<path d="M125.66 139.547H118.512L116.906 144H114.586L121.102 126.938H123.07L129.598 144H127.289L125.66 139.547ZM119.191 137.695H124.992L122.086 129.715L119.191 137.695ZM138.938 140.637C138.938 140.051 138.715 139.598 138.27 139.277C137.832 138.949 137.062 138.668 135.961 138.434C134.867 138.199 133.996 137.918 133.348 137.59C132.707 137.262 132.23 136.871 131.918 136.418C131.613 135.965 131.461 135.426 131.461 134.801C131.461 133.762 131.898 132.883 132.773 132.164C133.656 131.445 134.781 131.086 136.148 131.086C137.586 131.086 138.75 131.457 139.641 132.199C140.539 132.941 140.988 133.891 140.988 135.047H138.809C138.809 134.453 138.555 133.941 138.047 133.512C137.547 133.082 136.914 132.867 136.148 132.867C135.359 132.867 134.742 133.039 134.297 133.383C133.852 133.727 133.629 134.176 133.629 134.73C133.629 135.254 133.836 135.648 134.25 135.914C134.664 136.18 135.41 136.434 136.488 136.676C137.574 136.918 138.453 137.207 139.125 137.543C139.797 137.879 140.293 138.285 140.613 138.762C140.941 139.23 141.105 139.805 141.105 140.484C141.105 141.617 140.652 142.527 139.746 143.215C138.84 143.895 137.664 144.234 136.219 144.234C135.203 144.234 134.305 144.055 133.523 143.695C132.742 143.336 132.129 142.836 131.684 142.195C131.246 141.547 131.027 140.848 131.027 140.098H133.195C133.234 140.824 133.523 141.402 134.062 141.832C134.609 142.254 135.328 142.465 136.219 142.465C137.039 142.465 137.695 142.301 138.188 141.973C138.688 141.637 138.938 141.191 138.938 140.637ZM151.922 131.32L151.98 132.727C152.91 131.633 154.164 131.086 155.742 131.086C157.516 131.086 158.723 131.766 159.363 133.125C159.785 132.516 160.332 132.023 161.004 131.648C161.684 131.273 162.484 131.086 163.406 131.086C166.188 131.086 167.602 132.559 167.648 135.504V144H165.48V135.633C165.48 134.727 165.273 134.051 164.859 133.605C164.445 133.152 163.75 132.926 162.773 132.926C161.969 132.926 161.301 133.168 160.77 133.652C160.238 134.129 159.93 134.773 159.844 135.586V144H157.664V135.691C157.664 133.848 156.762 132.926 154.957 132.926C153.535 132.926 152.562 133.531 152.039 134.742V144H149.871V131.32H151.922ZM178.758 144C178.633 143.75 178.531 143.305 178.453 142.664C177.445 143.711 176.242 144.234 174.844 144.234C173.594 144.234 172.566 143.883 171.762 143.18C170.965 142.469 170.566 141.57 170.566 140.484C170.566 139.164 171.066 138.141 172.066 137.414C173.074 136.68 174.488 136.312 176.309 136.312H178.418V135.316C178.418 134.559 178.191 133.957 177.738 133.512C177.285 133.059 176.617 132.832 175.734 132.832C174.961 132.832 174.312 133.027 173.789 133.418C173.266 133.809 173.004 134.281 173.004 134.836H170.824C170.824 134.203 171.047 133.594 171.492 133.008C171.945 132.414 172.555 131.945 173.32 131.602C174.094 131.258 174.941 131.086 175.863 131.086C177.324 131.086 178.469 131.453 179.297 132.188C180.125 132.914 180.555 133.918 180.586 135.199V141.035C180.586 142.199 180.734 143.125 181.031 143.812V144H178.758ZM175.16 142.348C175.84 142.348 176.484 142.172 177.094 141.82C177.703 141.469 178.145 141.012 178.418 140.449V137.848H176.719C174.062 137.848 172.734 138.625 172.734 140.18C172.734 140.859 172.961 141.391 173.414 141.773C173.867 142.156 174.449 142.348 175.16 142.348ZM186.926 128.25V131.32H189.293V132.996H186.926V140.859C186.926 141.367 187.031 141.75 187.242 142.008C187.453 142.258 187.812 142.383 188.32 142.383C188.57 142.383 188.914 142.336 189.352 142.242V144C188.781 144.156 188.227 144.234 187.688 144.234C186.719 144.234 185.988 143.941 185.496 143.355C185.004 142.77 184.758 141.938 184.758 140.859V132.996H182.449V131.32H184.758V128.25H186.926ZM197.965 133.266C197.637 133.211 197.281 133.184 196.898 133.184C195.477 133.184 194.512 133.789 194.004 135V144H191.836V131.32H193.945L193.98 132.785C194.691 131.652 195.699 131.086 197.004 131.086C197.426 131.086 197.746 131.141 197.965 131.25V133.266ZM202.324 144H200.145V131.32H202.324V144ZM202.348 126.012H204.973L201.832 129.457H200.086L202.348 126.012ZM210.984 142.465C211.758 142.465 212.434 142.23 213.012 141.762C213.59 141.293 213.91 140.707 213.973 140.004H216.023C215.984 140.73 215.734 141.422 215.273 142.078C214.812 142.734 214.195 143.258 213.422 143.648C212.656 144.039 211.844 144.234 210.984 144.234C209.258 144.234 207.883 143.66 206.859 142.512C205.844 141.355 205.336 139.777 205.336 137.777V137.414C205.336 136.18 205.562 135.082 206.016 134.121C206.469 133.16 207.117 132.414 207.961 131.883C208.812 131.352 209.816 131.086 210.973 131.086C212.395 131.086 213.574 131.512 214.512 132.363C215.457 133.215 215.961 134.32 216.023 135.68H213.973C213.91 134.859 213.598 134.188 213.035 133.664C212.48 133.133 211.793 132.867 210.973 132.867C209.871 132.867 209.016 133.266 208.406 134.062C207.805 134.852 207.504 135.996 207.504 137.496V137.906C207.504 139.367 207.805 140.492 208.406 141.281C209.008 142.07 209.867 142.465 210.984 142.465ZM226.289 142.746C225.445 143.738 224.207 144.234 222.574 144.234C221.223 144.234 220.191 143.844 219.48 143.062C218.777 142.273 218.422 141.109 218.414 139.57V131.32H220.582V139.512C220.582 141.434 221.363 142.395 222.926 142.395C224.582 142.395 225.684 141.777 226.23 140.543V131.32H228.398V144H226.336L226.289 142.746ZM234.059 144H231.891V126H234.059V144ZM245.367 144C245.242 143.75 245.141 143.305 245.062 142.664C244.055 143.711 242.852 144.234 241.453 144.234C240.203 144.234 239.176 143.883 238.371 143.18C237.574 142.469 237.176 141.57 237.176 140.484C237.176 139.164 237.676 138.141 238.676 137.414C239.684 136.68 241.098 136.312 242.918 136.312H245.027V135.316C245.027 134.559 244.801 133.957 244.348 133.512C243.895 133.059 243.227 132.832 242.344 132.832C241.57 132.832 240.922 133.027 240.398 133.418C239.875 133.809 239.613 134.281 239.613 134.836H237.434C237.434 134.203 237.656 133.594 238.102 133.008C238.555 132.414 239.164 131.945 239.93 131.602C240.703 131.258 241.551 131.086 242.473 131.086C243.934 131.086 245.078 131.453 245.906 132.188C246.734 132.914 247.164 133.918 247.195 135.199V141.035C247.195 142.199 247.344 143.125 247.641 143.812V144H245.367ZM241.77 142.348C242.449 142.348 243.094 142.172 243.703 141.82C244.312 141.469 244.754 141.012 245.027 140.449V137.848H243.328C240.672 137.848 239.344 138.625 239.344 140.18C239.344 140.859 239.57 141.391 240.023 141.773C240.477 142.156 241.059 142.348 241.77 142.348ZM257.977 140.637C257.977 140.051 257.754 139.598 257.309 139.277C256.871 138.949 256.102 138.668 255 138.434C253.906 138.199 253.035 137.918 252.387 137.59C251.746 137.262 251.27 136.871 250.957 136.418C250.652 135.965 250.5 135.426 250.5 134.801C250.5 133.762 250.938 132.883 251.812 132.164C252.695 131.445 253.82 131.086 255.188 131.086C256.625 131.086 257.789 131.457 258.68 132.199C259.578 132.941 260.027 133.891 260.027 135.047H257.848C257.848 134.453 257.594 133.941 257.086 133.512C256.586 133.082 255.953 132.867 255.188 132.867C254.398 132.867 253.781 133.039 253.336 133.383C252.891 133.727 252.668 134.176 252.668 134.73C252.668 135.254 252.875 135.648 253.289 135.914C253.703 136.18 254.449 136.434 255.527 136.676C256.613 136.918 257.492 137.207 258.164 137.543C258.836 137.879 259.332 138.285 259.652 138.762C259.98 139.23 260.145 139.805 260.145 140.484C260.145 141.617 259.691 142.527 258.785 143.215C257.879 143.895 256.703 144.234 255.258 144.234C254.242 144.234 253.344 144.055 252.562 143.695C251.781 143.336 251.168 142.836 250.723 142.195C250.285 141.547 250.066 140.848 250.066 140.098H252.234C252.273 140.824 252.562 141.402 253.102 141.832C253.648 142.254 254.367 142.465 255.258 142.465C256.078 142.465 256.734 142.301 257.227 141.973C257.727 141.637 257.977 141.191 257.977 140.637ZM276.305 140.637C276.305 140.051 276.082 139.598 275.637 139.277C275.199 138.949 274.43 138.668 273.328 138.434C272.234 138.199 271.363 137.918 270.715 137.59C270.074 137.262 269.598 136.871 269.285 136.418C268.98 135.965 268.828 135.426 268.828 134.801C268.828 133.762 269.266 132.883 270.141 132.164C271.023 131.445 272.148 131.086 273.516 131.086C274.953 131.086 276.117 131.457 277.008 132.199C277.906 132.941 278.355 133.891 278.355 135.047H276.176C276.176 134.453 275.922 133.941 275.414 133.512C274.914 133.082 274.281 132.867 273.516 132.867C272.727 132.867 272.109 133.039 271.664 133.383C271.219 133.727 270.996 134.176 270.996 134.73C270.996 135.254 271.203 135.648 271.617 135.914C272.031 136.18 272.777 136.434 273.855 136.676C274.941 136.918 275.82 137.207 276.492 137.543C277.164 137.879 277.66 138.285 277.98 138.762C278.309 139.23 278.473 139.805 278.473 140.484C278.473 141.617 278.02 142.527 277.113 143.215C276.207 143.895 275.031 144.234 273.586 144.234C272.57 144.234 271.672 144.055 270.891 143.695C270.109 143.336 269.496 142.836 269.051 142.195C268.613 141.547 268.395 140.848 268.395 140.098H270.562C270.602 140.824 270.891 141.402 271.43 141.832C271.977 142.254 272.695 142.465 273.586 142.465C274.406 142.465 275.062 142.301 275.555 141.973C276.055 141.637 276.305 141.191 276.305 140.637ZM286.559 144.234C284.84 144.234 283.441 143.672 282.363 142.547C281.285 141.414 280.746 139.902 280.746 138.012V137.613C280.746 136.355 280.984 135.234 281.461 134.25C281.945 133.258 282.617 132.484 283.477 131.93C284.344 131.367 285.281 131.086 286.289 131.086C287.938 131.086 289.219 131.629 290.133 132.715C291.047 133.801 291.504 135.355 291.504 137.379V138.281H282.914C282.945 139.531 283.309 140.543 284.004 141.316C284.707 142.082 285.598 142.465 286.676 142.465C287.441 142.465 288.09 142.309 288.621 141.996C289.152 141.684 289.617 141.27 290.016 140.754L291.34 141.785C290.277 143.418 288.684 144.234 286.559 144.234ZM286.289 132.867C285.414 132.867 284.68 133.188 284.086 133.828C283.492 134.461 283.125 135.352 282.984 136.5H289.336V136.336C289.273 135.234 288.977 134.383 288.445 133.781C287.914 133.172 287.195 132.867 286.289 132.867ZM300.152 133.266C299.824 133.211 299.469 133.184 299.086 133.184C297.664 133.184 296.699 133.789 296.191 135V144H294.023V131.32H296.133L296.168 132.785C296.879 131.652 297.887 131.086 299.191 131.086C299.613 131.086 299.934 131.141 300.152 131.25V133.266ZM309.516 144C309.391 143.75 309.289 143.305 309.211 142.664C308.203 143.711 307 144.234 305.602 144.234C304.352 144.234 303.324 143.883 302.52 143.18C301.723 142.469 301.324 141.57 301.324 140.484C301.324 139.164 301.824 138.141 302.824 137.414C303.832 136.68 305.246 136.312 307.066 136.312H309.176V135.316C309.176 134.559 308.949 133.957 308.496 133.512C308.043 133.059 307.375 132.832 306.492 132.832C305.719 132.832 305.07 133.027 304.547 133.418C304.023 133.809 303.762 134.281 303.762 134.836H301.582C301.582 134.203 301.805 133.594 302.25 133.008C302.703 132.414 303.312 131.945 304.078 131.602C304.852 131.258 305.699 131.086 306.621 131.086C308.082 131.086 309.227 131.453 310.055 132.188C310.883 132.914 311.312 133.918 311.344 135.199V141.035C311.344 142.199 311.492 143.125 311.789 143.812V144H309.516ZM305.918 142.348C306.598 142.348 307.242 142.172 307.852 141.82C308.461 141.469 308.902 141.012 309.176 140.449V137.848H307.477C304.82 137.848 303.492 138.625 303.492 140.18C303.492 140.859 303.719 141.391 304.172 141.773C304.625 142.156 305.207 142.348 305.918 142.348ZM311.016 126.375C311.016 127.219 310.773 127.902 310.289 128.426C309.812 128.949 309.215 129.211 308.496 129.211C308.176 129.211 307.898 129.172 307.664 129.094C307.43 129.016 307.121 128.855 306.738 128.613C306.363 128.371 306.09 128.227 305.918 128.18C305.754 128.125 305.562 128.098 305.344 128.098C305.023 128.098 304.75 128.223 304.523 128.473C304.297 128.715 304.184 129.027 304.184 129.41L302.73 129.328C302.73 128.492 302.965 127.801 303.434 127.254C303.91 126.707 304.512 126.434 305.238 126.434C305.512 126.434 305.758 126.473 305.977 126.551C306.195 126.629 306.492 126.781 306.867 127.008C307.242 127.234 307.527 127.383 307.723 127.453C307.926 127.523 308.148 127.559 308.391 127.559C308.727 127.559 309.004 127.426 309.223 127.16C309.449 126.895 309.562 126.586 309.562 126.234L311.016 126.375ZM314.168 137.543C314.168 136.301 314.41 135.184 314.895 134.191C315.387 133.199 316.066 132.434 316.934 131.895C317.809 131.355 318.805 131.086 319.922 131.086C321.648 131.086 323.043 131.684 324.105 132.879C325.176 134.074 325.711 135.664 325.711 137.648V137.801C325.711 139.035 325.473 140.145 324.996 141.129C324.527 142.105 323.852 142.867 322.969 143.414C322.094 143.961 321.086 144.234 319.945 144.234C318.227 144.234 316.832 143.637 315.762 142.441C314.699 141.246 314.168 139.664 314.168 137.695V137.543ZM316.348 137.801C316.348 139.207 316.672 140.336 317.32 141.188C317.977 142.039 318.852 142.465 319.945 142.465C321.047 142.465 321.922 142.035 322.57 141.176C323.219 140.309 323.543 139.098 323.543 137.543C323.543 136.152 323.211 135.027 322.547 134.168C321.891 133.301 321.016 132.867 319.922 132.867C318.852 132.867 317.988 133.293 317.332 134.145C316.676 134.996 316.348 136.215 316.348 137.801ZM137.273 172C137.148 171.75 137.047 171.305 136.969 170.664C135.961 171.711 134.758 172.234 133.359 172.234C132.109 172.234 131.082 171.883 130.277 171.18C129.48 170.469 129.082 169.57 129.082 168.484C129.082 167.164 129.582 166.141 130.582 165.414C131.59 164.68 133.004 164.312 134.824 164.312H136.934V163.316C136.934 162.559 136.707 161.957 136.254 161.512C135.801 161.059 135.133 160.832 134.25 160.832C133.477 160.832 132.828 161.027 132.305 161.418C131.781 161.809 131.52 162.281 131.52 162.836H129.34C129.34 162.203 129.562 161.594 130.008 161.008C130.461 160.414 131.07 159.945 131.836 159.602C132.609 159.258 133.457 159.086 134.379 159.086C135.84 159.086 136.984 159.453 137.812 160.188C138.641 160.914 139.07 161.918 139.102 163.199V169.035C139.102 170.199 139.25 171.125 139.547 171.812V172H137.273ZM133.676 170.348C134.355 170.348 135 170.172 135.609 169.82C136.219 169.469 136.66 169.012 136.934 168.449V165.848H135.234C132.578 165.848 131.25 166.625 131.25 168.18C131.25 168.859 131.477 169.391 131.93 169.773C132.383 170.156 132.965 170.348 133.676 170.348ZM153.234 165.801C153.234 167.738 152.789 169.297 151.898 170.477C151.008 171.648 149.812 172.234 148.312 172.234C146.711 172.234 145.473 171.668 144.598 170.535L144.492 172H142.5V154H144.668V160.715C145.543 159.629 146.75 159.086 148.289 159.086C149.828 159.086 151.035 159.668 151.91 160.832C152.793 161.996 153.234 163.59 153.234 165.613V165.801ZM151.066 165.555C151.066 164.078 150.781 162.938 150.211 162.133C149.641 161.328 148.82 160.926 147.75 160.926C146.32 160.926 145.293 161.59 144.668 162.918V168.402C145.332 169.73 146.367 170.395 147.773 170.395C148.812 170.395 149.621 169.992 150.199 169.188C150.777 168.383 151.066 167.172 151.066 165.555ZM161.238 172.234C159.52 172.234 158.121 171.672 157.043 170.547C155.965 169.414 155.426 167.902 155.426 166.012V165.613C155.426 164.355 155.664 163.234 156.141 162.25C156.625 161.258 157.297 160.484 158.156 159.93C159.023 159.367 159.961 159.086 160.969 159.086C162.617 159.086 163.898 159.629 164.812 160.715C165.727 161.801 166.184 163.355 166.184 165.379V166.281H157.594C157.625 167.531 157.988 168.543 158.684 169.316C159.387 170.082 160.277 170.465 161.355 170.465C162.121 170.465 162.77 170.309 163.301 169.996C163.832 169.684 164.297 169.27 164.695 168.754L166.02 169.785C164.957 171.418 163.363 172.234 161.238 172.234ZM160.969 160.867C160.094 160.867 159.359 161.188 158.766 161.828C158.172 162.461 157.805 163.352 157.664 164.5H164.016V164.336C163.953 163.234 163.656 162.383 163.125 161.781C162.594 161.172 161.875 160.867 160.969 160.867ZM174.832 161.266C174.504 161.211 174.148 161.184 173.766 161.184C172.344 161.184 171.379 161.789 170.871 163V172H168.703V159.32H170.812L170.848 160.785C171.559 159.652 172.566 159.086 173.871 159.086C174.293 159.086 174.613 159.141 174.832 159.25V161.266ZM180.363 156.25V159.32H182.73V160.996H180.363V168.859C180.363 169.367 180.469 169.75 180.68 170.008C180.891 170.258 181.25 170.383 181.758 170.383C182.008 170.383 182.352 170.336 182.789 170.242V172C182.219 172.156 181.664 172.234 181.125 172.234C180.156 172.234 179.426 171.941 178.934 171.355C178.441 170.77 178.195 169.938 178.195 168.859V160.996H175.887V159.32H178.195V156.25H180.363ZM193.102 172C192.977 171.75 192.875 171.305 192.797 170.664C191.789 171.711 190.586 172.234 189.188 172.234C187.938 172.234 186.91 171.883 186.105 171.18C185.309 170.469 184.91 169.57 184.91 168.484C184.91 167.164 185.41 166.141 186.41 165.414C187.418 164.68 188.832 164.312 190.652 164.312H192.762V163.316C192.762 162.559 192.535 161.957 192.082 161.512C191.629 161.059 190.961 160.832 190.078 160.832C189.305 160.832 188.656 161.027 188.133 161.418C187.609 161.809 187.348 162.281 187.348 162.836H185.168C185.168 162.203 185.391 161.594 185.836 161.008C186.289 160.414 186.898 159.945 187.664 159.602C188.438 159.258 189.285 159.086 190.207 159.086C191.668 159.086 192.812 159.453 193.641 160.188C194.469 160.914 194.898 161.918 194.93 163.199V169.035C194.93 170.199 195.078 171.125 195.375 171.812V172H193.102ZM189.504 170.348C190.184 170.348 190.828 170.172 191.438 169.82C192.047 169.469 192.488 169.012 192.762 168.449V165.848H191.062C188.406 165.848 187.078 166.625 187.078 168.18C187.078 168.859 187.305 169.391 187.758 169.773C188.211 170.156 188.793 170.348 189.504 170.348ZM205.711 168.637C205.711 168.051 205.488 167.598 205.043 167.277C204.605 166.949 203.836 166.668 202.734 166.434C201.641 166.199 200.77 165.918 200.121 165.59C199.48 165.262 199.004 164.871 198.691 164.418C198.387 163.965 198.234 163.426 198.234 162.801C198.234 161.762 198.672 160.883 199.547 160.164C200.43 159.445 201.555 159.086 202.922 159.086C204.359 159.086 205.523 159.457 206.414 160.199C207.312 160.941 207.762 161.891 207.762 163.047H205.582C205.582 162.453 205.328 161.941 204.82 161.512C204.32 161.082 203.688 160.867 202.922 160.867C202.133 160.867 201.516 161.039 201.07 161.383C200.625 161.727 200.402 162.176 200.402 162.73C200.402 163.254 200.609 163.648 201.023 163.914C201.438 164.18 202.184 164.434 203.262 164.676C204.348 164.918 205.227 165.207 205.898 165.543C206.57 165.879 207.066 166.285 207.387 166.762C207.715 167.23 207.879 167.805 207.879 168.484C207.879 169.617 207.426 170.527 206.52 171.215C205.613 171.895 204.438 172.234 202.992 172.234C201.977 172.234 201.078 172.055 200.297 171.695C199.516 171.336 198.902 170.836 198.457 170.195C198.02 169.547 197.801 168.848 197.801 168.098H199.969C200.008 168.824 200.297 169.402 200.836 169.832C201.383 170.254 202.102 170.465 202.992 170.465C203.812 170.465 204.469 170.301 204.961 169.973C205.461 169.637 205.711 169.191 205.711 168.637ZM221.918 172.234C220.199 172.234 218.801 171.672 217.723 170.547C216.645 169.414 216.105 167.902 216.105 166.012V165.613C216.105 164.355 216.344 163.234 216.82 162.25C217.305 161.258 217.977 160.484 218.836 159.93C219.703 159.367 220.641 159.086 221.648 159.086C223.297 159.086 224.578 159.629 225.492 160.715C226.406 161.801 226.863 163.355 226.863 165.379V166.281H218.273C218.305 167.531 218.668 168.543 219.363 169.316C220.066 170.082 220.957 170.465 222.035 170.465C222.801 170.465 223.449 170.309 223.98 169.996C224.512 169.684 224.977 169.27 225.375 168.754L226.699 169.785C225.637 171.418 224.043 172.234 221.918 172.234ZM221.648 160.867C220.773 160.867 220.039 161.188 219.445 161.828C218.852 162.461 218.484 163.352 218.344 164.5H224.695V164.336C224.633 163.234 224.336 162.383 223.805 161.781C223.273 161.172 222.555 160.867 221.648 160.867ZM231.422 159.32L231.48 160.727C232.41 159.633 233.664 159.086 235.242 159.086C237.016 159.086 238.223 159.766 238.863 161.125C239.285 160.516 239.832 160.023 240.504 159.648C241.184 159.273 241.984 159.086 242.906 159.086C245.688 159.086 247.102 160.559 247.148 163.504V172H244.98V163.633C244.98 162.727 244.773 162.051 244.359 161.605C243.945 161.152 243.25 160.926 242.273 160.926C241.469 160.926 240.801 161.168 240.27 161.652C239.738 162.129 239.43 162.773 239.344 163.586V172H237.164V163.691C237.164 161.848 236.262 160.926 234.457 160.926C233.035 160.926 232.062 161.531 231.539 162.742V172H229.371V159.32H231.422ZM267.117 165.801C267.117 167.738 266.672 169.297 265.781 170.477C264.891 171.648 263.695 172.234 262.195 172.234C260.594 172.234 259.355 171.668 258.48 170.535L258.375 172H256.383V154H258.551V160.715C259.426 159.629 260.633 159.086 262.172 159.086C263.711 159.086 264.918 159.668 265.793 160.832C266.676 161.996 267.117 163.59 267.117 165.613V165.801ZM264.949 165.555C264.949 164.078 264.664 162.938 264.094 162.133C263.523 161.328 262.703 160.926 261.633 160.926C260.203 160.926 259.176 161.59 258.551 162.918V168.402C259.215 169.73 260.25 170.395 261.656 170.395C262.695 170.395 263.504 169.992 264.082 169.188C264.66 168.383 264.949 167.172 264.949 165.555ZM275.988 161.266C275.66 161.211 275.305 161.184 274.922 161.184C273.5 161.184 272.535 161.789 272.027 163V172H269.859V159.32H271.969L272.004 160.785C272.715 159.652 273.723 159.086 275.027 159.086C275.449 159.086 275.77 159.141 275.988 159.25V161.266ZM283.02 172.234C281.301 172.234 279.902 171.672 278.824 170.547C277.746 169.414 277.207 167.902 277.207 166.012V165.613C277.207 164.355 277.445 163.234 277.922 162.25C278.406 161.258 279.078 160.484 279.938 159.93C280.805 159.367 281.742 159.086 282.75 159.086C284.398 159.086 285.68 159.629 286.594 160.715C287.508 161.801 287.965 163.355 287.965 165.379V166.281H279.375C279.406 167.531 279.77 168.543 280.465 169.316C281.168 170.082 282.059 170.465 283.137 170.465C283.902 170.465 284.551 170.309 285.082 169.996C285.613 169.684 286.078 169.27 286.477 168.754L287.801 169.785C286.738 171.418 285.145 172.234 283.02 172.234ZM282.75 160.867C281.875 160.867 281.141 161.188 280.547 161.828C279.953 162.461 279.586 163.352 279.445 164.5H285.797V164.336C285.734 163.234 285.438 162.383 284.906 161.781C284.375 161.172 283.656 160.867 282.75 160.867ZM294.504 169.059L297.645 159.32H299.859L295.312 172H293.66L289.066 159.32H291.281L294.504 169.059ZM307.043 172.234C305.324 172.234 303.926 171.672 302.848 170.547C301.77 169.414 301.23 167.902 301.23 166.012V165.613C301.23 164.355 301.469 163.234 301.945 162.25C302.43 161.258 303.102 160.484 303.961 159.93C304.828 159.367 305.766 159.086 306.773 159.086C308.422 159.086 309.703 159.629 310.617 160.715C311.531 161.801 311.988 163.355 311.988 165.379V166.281H303.398C303.43 167.531 303.793 168.543 304.488 169.316C305.191 170.082 306.082 170.465 307.16 170.465C307.926 170.465 308.574 170.309 309.105 169.996C309.637 169.684 310.102 169.27 310.5 168.754L311.824 169.785C310.762 171.418 309.168 172.234 307.043 172.234ZM306.773 160.867C305.898 160.867 305.164 161.188 304.57 161.828C303.977 162.461 303.609 163.352 303.469 164.5H309.82V164.336C309.758 163.234 309.461 162.383 308.93 161.781C308.398 161.172 307.68 160.867 306.773 160.867ZM314.555 170.863C314.555 170.488 314.664 170.176 314.883 169.926C315.109 169.676 315.445 169.551 315.891 169.551C316.336 169.551 316.672 169.676 316.898 169.926C317.133 170.176 317.25 170.488 317.25 170.863C317.25 171.223 317.133 171.523 316.898 171.766C316.672 172.008 316.336 172.129 315.891 172.129C315.445 172.129 315.109 172.008 314.883 171.766C314.664 171.523 314.555 171.223 314.555 170.863Z" fill="#FD951F"/>
<g clip-path="url(#clip1)">
<path d="M224.367 73.337H220.779L220.499 50.8842H224.668L224.367 73.337ZM220.346 80.168C220.346 79.5245 220.541 78.9874 220.928 78.5565C221.327 78.1129 221.916 77.891 222.688 77.891C223.461 77.891 224.05 78.1129 224.451 78.5565C224.851 78.9874 225.053 79.5245 225.053 80.1699C225.053 80.8115 224.851 81.3505 224.451 81.7795C224.048 82.1957 223.461 82.4029 222.689 82.4029C221.916 82.4029 221.327 82.1957 220.928 81.7795C220.541 81.3505 220.346 80.8134 220.346 80.168V80.168Z" fill="white"/>
<path d="M223.5 104.625C244.003 104.625 260.625 88.0032 260.625 67.4997C260.625 46.9961 244.003 30.3747 223.5 30.3747C202.996 30.3747 186.375 46.9961 186.375 67.4997C186.375 88.0032 202.996 104.625 223.5 104.625Z" stroke="#FD951F" stroke-width="3"/>
</g>
<defs>
<linearGradient id="paint0_linear" x1="-108.5" y1="-151.5" x2="433.5" y2="594" gradientUnits="userSpaceOnUse">
<stop offset="0.228006" stop-color="#04D361" stop-opacity="0.7"/>
<stop offset="0.755208" stop-color="#064523" stop-opacity="0.7"/>
<stop offset="1" stop-color="#064523" stop-opacity="0.7"/>
</linearGradient>
<radialGradient id="paint1_radial" cx="0" cy="0" r="1" gradientUnits="userSpaceOnUse" gradientTransform="translate(223.203 370.537) scale(133.43 133.251)">
<stop stop-color="#68E5A0"/>
<stop offset="0.00567427" stop-color="#04D361"/>
<stop offset="0.584253" stop-color="#04D361" stop-opacity="0"/>
</radialGradient>
<linearGradient id="paint2_linear" x1="223.487" y1="376.139" x2="223.487" y2="489.616" gradientUnits="userSpaceOnUse">
<stop stop-color="#06B656"/>
<stop offset="0.380208" stop-color="#08994A" stop-opacity="0"/>
</linearGradient>
<linearGradient id="paint3_linear" x1="223.487" y1="376.139" x2="223.487" y2="489.616" gradientUnits="userSpaceOnUse">
<stop stop-color="#06B656"/>
<stop offset="0.4633" stop-color="#08994A" stop-opacity="0"/>
</linearGradient>
<clipPath id="clip0">
<rect width="207" height="334" fill="white" transform="translate(120 231)"/>
</clipPath>
<clipPath id="clip1">
<rect width="77" height="77" fill="white" transform="translate(185 29)"/>
</clipPath>
</defs>
</svg>
