<svg width="250" height="191" viewBox="0 0 250 191" fill="none" xmlns="http://www.w3.org/2000/svg">
<g opacity="0.8">
<path opacity="0.8" d="M119.939 8.64487C120.838 7.08721 123.087 7.08725 123.986 8.64487L213.017 162.85C213.916 164.408 212.792 166.355 210.993 166.355H32.9319C31.1333 166.355 30.0092 164.408 30.9085 162.85L119.939 8.64487Z" fill="url(#paint0_radial)" fill-opacity="0.5"/>
<path opacity="0.8" d="M120.243 8.82011C121.007 7.4961 122.918 7.49614 123.683 8.82011L212.713 163.026C213.478 164.35 212.522 166.005 210.994 166.005H32.9319C31.4031 166.005 30.4476 164.35 31.2121 163.026L120.243 8.82011Z" stroke="#04D361" stroke-opacity="0.16" stroke-width="1.5"/>
</g>
<path d="M120.335 73.9154C121.05 72.6472 122.876 72.6472 123.591 73.9154L155.437 130.39C156.14 131.636 155.24 133.178 153.809 133.178H90.1159C88.6855 133.178 87.785 131.636 88.4878 130.39L120.335 73.9154Z" fill="#0F0F11" stroke="#E1E1E6" stroke-width="4"/>
<path d="M79.0561 0.657126L82.128 9.33121L85.1836 0.657126H88.4201V12.6168H85.9477V9.34762L86.1939 3.70455L82.9659 12.6168H81.2738L78.0537 3.71276L78.3 9.34762V12.6168H75.836V0.657126H79.0561ZM94.5065 12.7811C93.2033 12.7811 92.1411 12.3814 91.3196 11.5819C90.5037 10.7823 90.0958 9.71724 90.0958 8.38659V8.15659C90.0958 7.26397 90.2682 6.4672 90.6131 5.76626C90.9579 5.05986 91.4453 4.51774 92.0752 4.1399C92.7103 3.75657 93.4332 3.56491 94.2439 3.56491C95.4593 3.56491 96.4149 3.94823 97.1103 4.71486C97.8112 5.48154 98.1617 6.5685 98.1617 7.97589V8.94514H92.5023C92.579 9.52561 92.8089 9.99107 93.1925 10.3415C93.5813 10.692 94.071 10.8672 94.6626 10.8672C95.5771 10.8672 96.2916 10.5359 96.8065 9.87332L97.9729 11.1793C97.6168 11.6832 97.135 12.0774 96.5271 12.3622C95.9196 12.6414 95.2458 12.7811 94.5065 12.7811ZM94.2355 5.48701C93.7645 5.48701 93.3813 5.64579 93.0855 5.96341C92.7953 6.28103 92.6093 6.73556 92.5271 7.32696H95.829V7.13804C95.8182 6.61234 95.6757 6.2071 95.4019 5.92234C95.128 5.6321 94.7392 5.48701 94.2355 5.48701ZM102.359 1.54425V3.72919H103.879V5.47056H102.359V9.90617C102.359 10.2347 102.422 10.4702 102.548 10.6126C102.674 10.755 102.915 10.8262 103.271 10.8262C103.534 10.8262 103.767 10.807 103.969 10.7686V12.5675C103.504 12.7099 103.025 12.7811 102.532 12.7811C100.867 12.7811 100.018 11.9405 99.9855 10.2594V5.47056H98.6874V3.72919H99.9855V1.54425H102.359ZM104.585 8.09089C104.585 7.20921 104.755 6.42341 105.094 5.73341C105.434 5.04346 105.921 4.50953 106.557 4.13168C107.197 3.75383 107.939 3.56491 108.783 3.56491C109.982 3.56491 110.959 3.9318 111.715 4.6656C112.476 5.39939 112.9 6.39603 112.988 7.65551L113.005 8.26336C113.005 9.62692 112.624 10.7221 111.863 11.549C111.102 12.3704 110.08 12.7811 108.799 12.7811C107.518 12.7811 106.493 12.3704 105.727 11.549C104.966 10.7276 104.585 9.61047 104.585 8.19766V8.09089ZM106.959 8.26336C106.959 9.10668 107.118 9.75285 107.436 10.2019C107.753 10.6454 108.207 10.8672 108.799 10.8672C109.374 10.8672 109.823 10.6482 110.146 10.2101C110.469 9.76654 110.631 9.06014 110.631 8.09089C110.631 7.26397 110.469 6.62327 110.146 6.16878C109.823 5.71425 109.369 5.48701 108.783 5.48701C108.202 5.48701 107.753 5.71425 107.436 6.16878C107.118 6.6178 106.959 7.31598 106.959 8.26336ZM114.097 8.10729C114.097 6.72187 114.407 5.61841 115.025 4.79701C115.65 3.97561 116.501 3.56491 117.58 3.56491C118.445 3.56491 119.16 3.888 119.724 4.53417V0H122.106V12.6168H119.962L119.847 11.6722C119.256 12.4114 118.494 12.7811 117.564 12.7811C116.518 12.7811 115.677 12.3704 115.042 11.549C114.412 10.7221 114.097 9.57486 114.097 8.10729ZM116.471 8.27981C116.471 9.11215 116.616 9.75009 116.907 10.1937C117.197 10.6372 117.618 10.859 118.171 10.859C118.905 10.859 119.422 10.5496 119.724 9.93084V6.42341C119.428 5.80463 118.916 5.49523 118.188 5.49523C117.043 5.49523 116.471 6.42341 116.471 8.27981ZM123.576 8.09089C123.576 7.20921 123.746 6.42341 124.085 5.73341C124.425 5.04346 124.912 4.50953 125.548 4.13168C126.188 3.75383 126.93 3.56491 127.774 3.56491C128.973 3.56491 129.95 3.9318 130.706 4.6656C131.467 5.39939 131.892 6.39603 131.979 7.65551L131.996 8.26336C131.996 9.62692 131.615 10.7221 130.854 11.549C130.093 12.3704 129.071 12.7811 127.79 12.7811C126.509 12.7811 125.485 12.3704 124.718 11.549C123.957 10.7276 123.576 9.61047 123.576 8.19766V8.09089ZM125.95 8.26336C125.95 9.10668 126.109 9.75285 126.427 10.2019C126.744 10.6454 127.199 10.8672 127.79 10.8672C128.365 10.8672 128.814 10.6482 129.137 10.2101C129.46 9.76654 129.622 9.06014 129.622 8.09089C129.622 7.26397 129.46 6.62327 129.137 6.16878C128.814 5.71425 128.359 5.48701 127.774 5.48701C127.193 5.48701 126.744 5.71425 126.427 6.16878C126.109 6.6178 125.95 7.31598 125.95 8.26336ZM135.963 12.6168H133.581V0H135.963V12.6168ZM137.557 8.09089C137.557 7.20921 137.726 6.42341 138.066 5.73341C138.406 5.04346 138.893 4.50953 139.528 4.13168C140.169 3.75383 140.911 3.56491 141.754 3.56491C142.953 3.56491 143.931 3.9318 144.686 4.6656C145.448 5.39939 145.872 6.39603 145.96 7.65551L145.976 8.26336C145.976 9.62692 145.595 10.7221 144.834 11.549C144.073 12.3704 143.052 12.7811 141.771 12.7811C140.489 12.7811 139.465 12.3704 138.698 11.549C137.937 10.7276 137.557 9.61047 137.557 8.19766V8.09089ZM139.93 8.26336C139.93 9.10668 140.089 9.75285 140.407 10.2019C140.724 10.6454 141.179 10.8672 141.771 10.8672C142.345 10.8672 142.794 10.6482 143.117 10.2101C143.441 9.76654 143.602 9.06014 143.602 8.09089C143.602 7.26397 143.441 6.62327 143.117 6.16878C142.794 5.71425 142.34 5.48701 141.754 5.48701C141.173 5.48701 140.724 5.71425 140.407 6.16878C140.089 6.6178 139.93 7.31598 139.93 8.26336ZM147.093 8.10729C147.093 6.74374 147.416 5.64579 148.063 4.81346C148.714 3.98109 149.59 3.56491 150.691 3.56491C151.665 3.56491 152.424 3.89895 152.966 4.56703L153.065 3.72919H155.217V12.3211C155.217 13.0987 155.039 13.775 154.683 14.35C154.332 14.925 153.837 15.3631 153.196 15.6643C152.556 15.9654 151.805 16.116 150.945 16.116C150.294 16.116 149.659 15.9846 149.04 15.7217C148.421 15.4644 147.953 15.1303 147.635 14.7196L148.686 13.2739C149.278 13.9365 149.995 14.2678 150.839 14.2678C151.469 14.2678 151.958 14.0981 152.309 13.7586C152.659 13.4245 152.835 12.9481 152.835 12.3293V11.8529C152.287 12.4717 151.567 12.7811 150.674 12.7811C149.607 12.7811 148.742 12.3649 148.079 11.5326C147.421 10.6947 147.093 9.58584 147.093 8.20584V8.10729ZM149.467 8.27981C149.467 9.08477 149.628 9.71724 149.951 10.1772C150.275 10.6318 150.718 10.859 151.282 10.859C152.005 10.859 152.522 10.5879 152.835 10.0458V6.30841C152.517 5.76626 152.005 5.49523 151.299 5.49523C150.729 5.49523 150.28 5.72794 149.951 6.19341C149.628 6.65888 149.467 7.35435 149.467 8.27981ZM159.554 12.6168H157.172V3.72919H159.554V12.6168ZM157.032 1.42925C157.032 1.07331 157.15 0.780336 157.385 0.550341C157.626 0.320349 157.952 0.205352 158.363 0.205352C158.768 0.205352 159.091 0.320349 159.332 0.550341C159.573 0.780336 159.693 1.07331 159.693 1.42925C159.693 1.79067 159.57 2.08637 159.324 2.31637C159.083 2.54636 158.763 2.66136 158.363 2.66136C157.963 2.66136 157.64 2.54636 157.393 2.31637C157.153 2.08637 157.032 1.79067 157.032 1.42925ZM166.667 12.6168C166.558 12.4033 166.478 12.1377 166.429 11.82C165.854 12.4607 165.107 12.7811 164.186 12.7811C163.316 12.7811 162.593 12.5292 162.018 12.0254C161.449 11.5216 161.164 10.8864 161.164 10.1197C161.164 9.17785 161.512 8.45505 162.207 7.95121C162.908 7.44743 163.918 7.1928 165.238 7.18734H166.33V6.67804C166.33 6.26734 166.224 5.93878 166.01 5.69234C165.802 5.44593 165.471 5.32271 165.016 5.32271C164.616 5.32271 164.301 5.41855 164.071 5.61023C163.847 5.80187 163.735 6.06472 163.735 6.39879H161.361C161.361 5.88402 161.52 5.40762 161.837 4.96953C162.155 4.53143 162.604 4.18918 163.185 3.94276C163.765 3.69086 164.417 3.56491 165.139 3.56491C166.235 3.56491 167.103 3.84145 167.743 4.39453C168.39 4.94215 168.713 5.71425 168.713 6.71089V10.5633C168.718 11.4066 168.836 12.0446 169.066 12.4772V12.6168H166.667ZM164.704 10.9658C165.055 10.9658 165.378 10.8891 165.673 10.7358C165.969 10.577 166.188 10.3662 166.33 10.1033V8.57551H165.443C164.255 8.57551 163.622 8.98621 163.546 9.80762L163.538 9.94724C163.538 10.2429 163.642 10.4866 163.85 10.6783C164.058 10.87 164.342 10.9658 164.704 10.9658Z" fill="#E1E1E6"/>
<path d="M92.8336 24.7554H90.6033V27.1028H89.9023V21.7874H93.1953V22.3642H90.6033V24.1822H92.8336V24.7554ZM93.6696 25.0913C93.6696 24.7043 93.7453 24.3563 93.8963 24.0472C94.0495 23.7381 94.2612 23.4996 94.5313 23.3316C94.8037 23.1637 95.114 23.0797 95.4622 23.0797C96 23.0797 96.4346 23.2659 96.7654 23.6383C97.0991 24.0107 97.2654 24.5059 97.2654 25.1241V25.1716C97.2654 25.5561 97.1916 25.9017 97.043 26.2084C96.8967 26.5126 96.6865 26.7499 96.4112 26.9203C96.1388 27.0907 95.8248 27.1758 95.4696 27.1758C94.9341 27.1758 94.4995 26.9896 94.1664 26.6172C93.8351 26.2449 93.6696 25.7521 93.6696 25.1387V25.0913ZM94.3486 25.1716C94.3486 25.6097 94.4495 25.9614 94.6519 26.2266C94.8561 26.4919 95.129 26.6246 95.4696 26.6246C95.8126 26.6246 96.085 26.4907 96.2874 26.223C96.4893 25.9529 96.5902 25.5756 96.5902 25.0913C96.5902 24.658 96.4869 24.3076 96.2799 24.0399C96.0757 23.7697 95.8028 23.6346 95.4622 23.6346C95.129 23.6346 94.8598 23.7673 94.6551 24.0326C94.4509 24.2979 94.3486 24.6775 94.3486 25.1716ZM99.6972 26.6246C99.9379 26.6246 100.149 26.5515 100.329 26.4055C100.509 26.2595 100.608 26.077 100.628 25.8579H101.267C101.255 26.0843 101.177 26.2996 101.033 26.5041C100.89 26.7085 100.697 26.8716 100.457 26.9933C100.218 27.115 99.9645 27.1758 99.6972 27.1758C99.1594 27.1758 98.7308 26.9969 98.4122 26.6392C98.0953 26.279 97.9374 25.7873 97.9374 25.1643V25.0511C97.9374 24.6666 98.0079 24.3246 98.1491 24.0253C98.2902 23.7259 98.4921 23.4935 98.7551 23.328C99.0206 23.1625 99.3332 23.0797 99.6935 23.0797C100.136 23.0797 100.504 23.2124 100.796 23.4777C101.09 23.7429 101.247 24.0873 101.267 24.5108H100.628C100.608 24.2552 100.511 24.0459 100.336 23.8829C100.163 23.7174 99.9491 23.6346 99.6935 23.6346C99.35 23.6346 99.0836 23.7588 98.8939 24.007C98.7065 24.2528 98.6126 24.6094 98.6126 25.0767V25.2044C98.6126 25.6596 98.7065 26.0101 98.8939 26.2558C99.0813 26.5016 99.3491 26.6246 99.6972 26.6246ZM101.847 25.0913C101.847 24.7043 101.923 24.3563 102.074 24.0472C102.227 23.7381 102.439 23.4996 102.709 23.3316C102.981 23.1637 103.292 23.0797 103.64 23.0797C104.178 23.0797 104.612 23.2659 104.943 23.6383C105.277 24.0107 105.443 24.5059 105.443 25.1241V25.1716C105.443 25.5561 105.369 25.9017 105.221 26.2084C105.074 26.5126 104.864 26.7499 104.589 26.9203C104.316 27.0907 104.002 27.1758 103.647 27.1758C103.112 27.1758 102.677 26.9896 102.344 26.6172C102.013 26.2449 101.847 25.7521 101.847 25.1387V25.0913ZM102.526 25.1716C102.526 25.6097 102.627 25.9614 102.829 26.2266C103.034 26.4919 103.307 26.6246 103.647 26.6246C103.99 26.6246 104.263 26.4907 104.465 26.223C104.667 25.9529 104.768 25.5756 104.768 25.0913C104.768 24.658 104.664 24.3076 104.457 24.0399C104.253 23.7697 103.98 23.6346 103.64 23.6346C103.307 23.6346 103.037 23.7673 102.833 24.0326C102.629 24.2979 102.526 24.6775 102.526 25.1716ZM106.268 28.1615L105.885 27.8986C106.114 27.5798 106.233 27.2513 106.243 26.913V26.3033H106.903V26.8327C106.903 27.0785 106.843 27.3243 106.721 27.5701C106.602 27.8159 106.451 28.013 106.268 28.1615ZM112.949 25.1716C112.949 25.7727 112.812 26.2571 112.536 26.6246C112.262 26.9921 111.889 27.1758 111.42 27.1758C110.94 27.1758 110.563 27.0237 110.288 26.7195V28.6215H109.612V23.1528H110.229L110.262 23.5908C110.537 23.2501 110.919 23.0797 111.408 23.0797C111.883 23.0797 112.258 23.2586 112.533 23.6164C112.81 23.9742 112.949 24.4719 112.949 25.1095V25.1716ZM112.274 25.0949C112.274 24.6495 112.179 24.2979 111.989 24.0399C111.799 23.7819 111.539 23.6529 111.207 23.6529C110.799 23.6529 110.492 23.8342 110.288 24.1968V26.0843C110.49 26.4444 110.799 26.6246 111.215 26.6246C111.539 26.6246 111.795 26.4968 111.985 26.2412C112.178 25.9833 112.274 25.6012 112.274 25.0949ZM115.72 23.7588C115.618 23.7417 115.507 23.7332 115.388 23.7332C114.945 23.7332 114.644 23.9218 114.486 24.2991V27.1028H113.811V23.1528H114.468L114.479 23.6091C114.7 23.2562 115.014 23.0797 115.421 23.0797C115.552 23.0797 115.652 23.0968 115.72 23.1308V23.7588ZM118.637 27.1028C118.598 27.0249 118.566 26.8862 118.542 26.6866C118.228 27.0128 117.853 27.1758 117.417 27.1758C117.028 27.1758 116.708 27.0663 116.457 26.8472C116.209 26.6258 116.085 26.3459 116.085 26.0076C116.085 25.5963 116.241 25.2775 116.552 25.0511C116.866 24.8223 117.307 24.7079 117.874 24.7079H118.531V24.3976C118.531 24.1615 118.46 23.9742 118.319 23.8354C118.178 23.6943 117.97 23.6237 117.695 23.6237C117.454 23.6237 117.252 23.6845 117.089 23.8062C116.926 23.9279 116.844 24.0751 116.844 24.2479H116.165C116.165 24.0508 116.235 23.861 116.373 23.6785C116.514 23.4935 116.704 23.3474 116.943 23.2404C117.184 23.1333 117.448 23.0797 117.735 23.0797C118.19 23.0797 118.547 23.1941 118.805 23.4229C119.063 23.6493 119.197 23.962 119.207 24.3611V26.1792C119.207 26.5418 119.253 26.8302 119.345 27.0444V27.1028H118.637ZM117.516 26.588C117.728 26.588 117.929 26.5333 118.118 26.4238C118.308 26.3143 118.446 26.1719 118.531 25.9966V25.1862H118.001C117.174 25.1862 116.76 25.4284 116.76 25.9127C116.76 26.1244 116.831 26.2899 116.972 26.4092C117.113 26.5284 117.294 26.588 117.516 26.588ZM118.14 21.4953H118.958L117.98 22.5686H117.436L118.14 21.4953ZM121.181 22.1963V23.1528H121.919V23.6748H121.181V26.1244C121.181 26.2826 121.214 26.4019 121.28 26.4822C121.346 26.5601 121.457 26.599 121.616 26.599C121.693 26.599 121.801 26.5844 121.937 26.5552V27.1028C121.759 27.1515 121.586 27.1758 121.419 27.1758C121.117 27.1758 120.889 27.0845 120.736 26.902C120.583 26.7195 120.506 26.4603 120.506 26.1244V23.6748H119.787V23.1528H120.506V22.1963H121.181ZM123.445 27.1028H122.77V23.1528H123.445V27.1028ZM122.714 22.105C122.714 21.9955 122.748 21.903 122.813 21.8275C122.881 21.7521 122.981 21.7144 123.113 21.7144C123.244 21.7144 123.344 21.7521 123.412 21.8275C123.48 21.903 123.514 21.9955 123.514 22.105C123.514 22.2145 123.48 22.3058 123.412 22.3788C123.344 22.4518 123.244 22.4883 123.113 22.4883C122.981 22.4883 122.881 22.4518 122.813 22.3788C122.748 22.3058 122.714 22.2145 122.714 22.105ZM126.114 26.6246C126.354 26.6246 126.565 26.5515 126.745 26.4055C126.925 26.2595 127.025 26.077 127.044 25.8579H127.683C127.671 26.0843 127.593 26.2996 127.45 26.5041C127.306 26.7085 127.114 26.8716 126.873 26.9933C126.634 27.115 126.381 27.1758 126.114 27.1758C125.576 27.1758 125.147 26.9969 124.829 26.6392C124.512 26.279 124.354 25.7873 124.354 25.1643V25.0511C124.354 24.6666 124.424 24.3246 124.565 24.0253C124.707 23.7259 124.909 23.4935 125.172 23.328C125.437 23.1625 125.75 23.0797 126.11 23.0797C126.553 23.0797 126.92 23.2124 127.212 23.4777C127.507 23.7429 127.664 24.0873 127.683 24.5108H127.044C127.025 24.2552 126.928 24.0459 126.752 23.8829C126.579 23.7174 126.365 23.6346 126.11 23.6346C125.767 23.6346 125.5 23.7588 125.31 24.007C125.123 24.2528 125.029 24.6094 125.029 25.0767V25.2044C125.029 25.6596 125.123 26.0101 125.31 26.2558C125.498 26.5016 125.765 26.6246 126.114 26.6246ZM130.881 27.1028C130.843 27.0249 130.811 26.8862 130.786 26.6866C130.472 27.0128 130.098 27.1758 129.662 27.1758C129.272 27.1758 128.952 27.0663 128.702 26.8472C128.454 26.6258 128.329 26.3459 128.329 26.0076C128.329 25.5963 128.485 25.2775 128.797 25.0511C129.111 24.8223 129.551 24.7079 130.118 24.7079H130.775V24.3976C130.775 24.1615 130.705 23.9742 130.564 23.8354C130.422 23.6943 130.214 23.6237 129.939 23.6237C129.699 23.6237 129.496 23.6845 129.333 23.8062C129.17 23.9279 129.089 24.0751 129.089 24.2479H128.41C128.41 24.0508 128.479 23.861 128.618 23.6785C128.759 23.4935 128.949 23.3474 129.187 23.2404C129.429 23.1333 129.693 23.0797 129.979 23.0797C130.435 23.0797 130.791 23.1941 131.049 23.4229C131.307 23.6493 131.441 23.962 131.451 24.3611V26.1792C131.451 26.5418 131.497 26.8302 131.59 27.0444V27.1028H130.881ZM129.761 26.588C129.972 26.588 130.173 26.5333 130.363 26.4238C130.553 26.3143 130.69 26.1719 130.775 25.9966V25.1862H130.246C129.419 25.1862 129.005 25.4284 129.005 25.9127C129.005 26.1244 129.075 26.2899 129.216 26.4092C129.358 26.5284 129.539 26.588 129.761 26.588ZM132.487 28.1615L132.104 27.8986C132.333 27.5798 132.452 27.2513 132.462 26.913V26.3033H133.123V26.8327C133.123 27.0785 133.062 27.3243 132.94 27.5701C132.821 27.8159 132.67 28.013 132.487 28.1615ZM135.671 25.0949C135.671 24.4792 135.814 23.99 136.098 23.6273C136.383 23.2622 136.76 23.0797 137.23 23.0797C137.712 23.0797 138.088 23.2501 138.358 23.5908L138.391 23.1528H139.008V27.0079C139.008 27.519 138.856 27.9218 138.551 28.2163C138.25 28.5108 137.843 28.658 137.332 28.658C137.047 28.658 136.769 28.5972 136.496 28.4755C136.223 28.3538 136.015 28.1871 135.872 27.9753L136.222 27.5701C136.512 27.9279 136.866 28.1067 137.285 28.1067C137.613 28.1067 137.869 28.0143 138.051 27.8293C138.236 27.6443 138.329 27.3839 138.329 27.048V26.7085C138.058 27.0201 137.69 27.1758 137.222 27.1758C136.76 27.1758 136.386 26.9896 136.098 26.6172C135.814 26.2449 135.671 25.7374 135.671 25.0949ZM136.35 25.1716C136.35 25.617 136.441 25.9674 136.624 26.223C136.807 26.4761 137.062 26.6027 137.391 26.6027C137.816 26.6027 138.129 26.4092 138.329 26.0222V24.2187C138.122 23.8415 137.812 23.6529 137.398 23.6529C137.069 23.6529 136.813 23.7807 136.628 24.0362C136.443 24.2918 136.35 24.6702 136.35 25.1716ZM141.939 23.7588C141.837 23.7417 141.726 23.7332 141.607 23.7332C141.164 23.7332 140.864 23.9218 140.705 24.2991V27.1028H140.03V23.1528H140.687L140.698 23.6091C140.92 23.2562 141.234 23.0797 141.64 23.0797C141.772 23.0797 141.871 23.0968 141.939 23.1308V23.7588ZM145.002 26.7122C144.739 27.0213 144.354 27.1758 143.845 27.1758C143.424 27.1758 143.103 27.0541 142.881 26.8108C142.662 26.565 142.551 26.2023 142.549 25.7229V23.1528H143.224V25.7046C143.224 26.3033 143.468 26.6027 143.954 26.6027C144.471 26.6027 144.814 26.4104 144.984 26.0258V23.1528H145.659V27.1028H145.017L145.002 26.7122ZM150.026 25.1716C150.026 25.7727 149.888 26.2571 149.613 26.6246C149.338 26.9921 148.965 27.1758 148.496 27.1758C148.016 27.1758 147.639 27.0237 147.364 26.7195V28.6215H146.689V23.1528H147.306L147.339 23.5908C147.614 23.2501 147.996 23.0797 148.485 23.0797C148.959 23.0797 149.335 23.2586 149.609 23.6164C149.887 23.9742 150.026 24.4719 150.026 25.1095V25.1716ZM149.35 25.0949C149.35 24.6495 149.255 24.2979 149.065 24.0399C148.876 23.7819 148.615 23.6529 148.284 23.6529C147.875 23.6529 147.569 23.8342 147.364 24.1968V26.0843C147.566 26.4444 147.875 26.6246 148.292 26.6246C148.615 26.6246 148.872 26.4968 149.062 26.2412C149.254 25.9833 149.35 25.6012 149.35 25.0949ZM150.708 25.0913C150.708 24.7043 150.784 24.3563 150.935 24.0472C151.088 23.7381 151.3 23.4996 151.57 23.3316C151.843 23.1637 152.153 23.0797 152.501 23.0797C153.039 23.0797 153.473 23.2659 153.804 23.6383C154.137 24.0107 154.304 24.5059 154.304 25.1241V25.1716C154.304 25.5561 154.23 25.9017 154.081 26.2084C153.936 26.5126 153.725 26.7499 153.45 26.9203C153.177 27.0907 152.864 27.1758 152.508 27.1758C151.972 27.1758 151.538 26.9896 151.205 26.6172C150.874 26.2449 150.708 25.7521 150.708 25.1387V25.0913ZM151.387 25.1716C151.387 25.6097 151.488 25.9614 151.69 26.2266C151.895 26.4919 152.167 26.6246 152.508 26.6246C152.851 26.6246 153.124 26.4907 153.326 26.223C153.528 25.9529 153.629 25.5756 153.629 25.0913C153.629 24.658 153.525 24.3076 153.319 24.0399C153.114 23.7697 152.842 23.6346 152.501 23.6346C152.167 23.6346 151.898 23.7673 151.694 24.0326C151.49 24.2979 151.387 24.6775 151.387 25.1716Z" fill="#04D361"/>
<path d="M186.225 157.231C186.132 158.518 185.656 159.531 184.796 160.271C183.942 161.01 182.814 161.379 181.412 161.379C179.878 161.379 178.671 160.864 177.789 159.835C176.913 158.8 176.475 157.382 176.475 155.58V154.849C176.475 153.699 176.678 152.686 177.083 151.81C177.488 150.934 178.066 150.263 178.816 149.797C179.571 149.327 180.448 149.091 181.444 149.091C182.824 149.091 183.936 149.461 184.779 150.2C185.622 150.939 186.11 151.977 186.242 153.313H183.777C183.717 152.541 183.5 151.982 183.128 151.637C182.761 151.287 182.2 151.112 181.444 151.112C180.623 151.112 180.007 151.407 179.596 151.999C179.191 152.585 178.983 153.496 178.972 154.734V155.637C178.972 156.93 179.166 157.875 179.555 158.471C179.95 159.068 180.568 159.367 181.412 159.367C182.173 159.367 182.739 159.194 183.112 158.85C183.49 158.499 183.706 157.959 183.761 157.231H186.225ZM193.01 160.311C192.424 161.023 191.614 161.379 190.579 161.379C189.626 161.379 188.897 161.106 188.393 160.558C187.895 160.01 187.641 159.208 187.629 158.151V152.327H190.003V158.069C190.003 158.994 190.425 159.457 191.268 159.457C192.073 159.457 192.627 159.178 192.928 158.619V152.327H195.31V161.215H193.076L193.01 160.311ZM202.094 154.553C201.771 154.509 201.487 154.488 201.24 154.488C200.342 154.488 199.754 154.792 199.474 155.4V161.215H197.1V152.327H199.343L199.408 153.387C199.885 152.571 200.545 152.163 201.388 152.163C201.651 152.163 201.898 152.199 202.128 152.27L202.094 154.553ZM208.239 154.553C207.915 154.509 207.631 154.488 207.385 154.488C206.486 154.488 205.898 154.792 205.618 155.4V161.215H203.244V152.327H205.487L205.553 153.387C206.029 152.571 206.689 152.163 207.532 152.163C207.795 152.163 208.042 152.199 208.271 152.27L208.239 154.553ZM211.951 161.215H209.578V152.327H211.951V161.215ZM211.253 148.721H213.841L211.565 151.268H209.635L211.253 148.721ZM217.701 159.465C218.139 159.465 218.495 159.345 218.769 159.104C219.043 158.863 219.186 158.543 219.196 158.143H221.422C221.417 158.745 221.252 159.298 220.929 159.802C220.607 160.3 220.163 160.689 219.599 160.969C219.04 161.243 218.421 161.379 217.743 161.379C216.472 161.379 215.47 160.977 214.736 160.172C214.002 159.361 213.636 158.244 213.636 156.821V156.664C213.636 155.295 214 154.203 214.728 153.387C215.456 152.571 216.456 152.163 217.726 152.163C218.837 152.163 219.728 152.481 220.395 153.116C221.069 153.746 221.411 154.586 221.422 155.637H219.196C219.186 155.178 219.043 154.805 218.769 154.521C218.495 154.23 218.134 154.085 217.685 154.085C217.132 154.085 216.713 154.288 216.428 154.693C216.149 155.093 216.009 155.744 216.009 156.648V156.894C216.009 157.809 216.149 158.466 216.428 158.866C216.707 159.265 217.132 159.465 217.701 159.465ZM228.1 160.311C227.514 161.023 226.704 161.379 225.669 161.379C224.716 161.379 223.988 161.106 223.484 160.558C222.986 160.01 222.731 159.208 222.72 158.151V152.327H225.094V158.069C225.094 158.994 225.516 159.457 226.359 159.457C227.164 159.457 227.717 159.178 228.018 158.619V152.327H230.4V161.215H228.166L228.1 160.311ZM234.696 161.215H232.314V148.598H234.696V161.215ZM236.29 156.689C236.29 155.807 236.459 155.021 236.799 154.332C237.139 153.642 237.626 153.107 238.261 152.73C238.902 152.352 239.644 152.163 240.487 152.163C241.686 152.163 242.664 152.53 243.42 153.264C244.181 153.998 244.605 154.994 244.693 156.254L244.709 156.862C244.709 158.225 244.329 159.32 243.567 160.147C242.806 160.969 241.785 161.379 240.504 161.379C239.222 161.379 238.198 160.969 237.432 160.147C236.671 159.326 236.29 158.208 236.29 156.796V156.689ZM238.664 156.862C238.664 157.705 238.822 158.351 239.14 158.8C239.457 159.243 239.912 159.465 240.504 159.465C241.078 159.465 241.528 159.246 241.851 158.808C242.174 158.364 242.336 157.658 242.336 156.689C242.336 155.862 242.174 155.221 241.851 154.767C241.528 154.313 241.073 154.085 240.487 154.085C239.907 154.085 239.457 154.313 239.14 154.767C238.822 155.216 238.664 155.914 238.664 156.862Z" fill="#E1E1E6"/>
<path d="M172.444 173.62V175.701H171.743V170.386H173.704C174.286 170.386 174.741 170.534 175.069 170.831C175.4 171.128 175.566 171.521 175.566 172.01C175.566 172.526 175.404 172.924 175.08 173.204C174.759 173.481 174.298 173.62 173.697 173.62H172.444ZM172.444 173.047H173.704C174.079 173.047 174.366 172.959 174.565 172.784C174.765 172.607 174.865 172.351 174.865 172.017C174.865 171.701 174.765 171.448 174.565 171.258C174.366 171.068 174.092 170.97 173.744 170.962H172.444V173.047ZM178.264 172.357C178.162 172.34 178.051 172.331 177.931 172.331C177.489 172.331 177.188 172.52 177.03 172.897V175.701H176.354V171.751H177.012L177.022 172.207C177.244 171.854 177.558 171.678 177.964 171.678C178.096 171.678 178.196 171.695 178.264 171.729V172.357ZM178.636 173.689C178.636 173.302 178.712 172.954 178.863 172.645C179.016 172.336 179.228 172.098 179.498 171.93C179.77 171.762 180.08 171.678 180.429 171.678C180.966 171.678 181.401 171.864 181.732 172.236C182.065 172.609 182.232 173.104 182.232 173.722V173.77C182.232 174.154 182.158 174.5 182.009 174.807C181.864 175.111 181.653 175.348 181.378 175.518C181.105 175.689 180.791 175.774 180.436 175.774C179.9 175.774 179.466 175.588 179.133 175.215C178.801 174.843 178.636 174.35 178.636 173.737V173.689ZM179.315 173.77C179.315 174.208 179.416 174.559 179.618 174.825C179.822 175.09 180.095 175.223 180.436 175.223C180.779 175.223 181.052 175.089 181.254 174.821C181.456 174.551 181.557 174.174 181.557 173.689C181.557 173.256 181.453 172.906 181.246 172.638C181.042 172.368 180.769 172.233 180.429 172.233C180.095 172.233 179.826 172.365 179.622 172.631C179.417 172.896 179.315 173.276 179.315 173.77ZM183.305 175.701V172.273H182.681V171.751H183.305V171.415C183.305 170.974 183.431 170.631 183.681 170.386C183.935 170.14 184.291 170.017 184.751 170.017C185.024 170.017 185.368 170.091 185.784 170.239L185.671 170.809C185.367 170.687 185.077 170.627 184.802 170.627C184.513 170.627 184.303 170.692 184.174 170.823C184.048 170.953 183.985 171.147 183.985 171.407V171.751H184.791V172.273H183.985V175.701H183.305ZM186.12 175.701H185.441V171.751H186.12V175.701ZM189.519 174.653C189.519 174.471 189.45 174.329 189.311 174.23C189.174 174.128 188.935 174.04 188.592 173.967C188.251 173.894 187.979 173.806 187.778 173.704C187.578 173.602 187.429 173.48 187.332 173.339C187.237 173.198 187.19 173.03 187.19 172.835C187.19 172.511 187.326 172.238 187.599 172.014C187.873 171.79 188.224 171.678 188.65 171.678C189.098 171.678 189.46 171.793 189.738 172.025C190.018 172.256 190.158 172.551 190.158 172.912H189.479C189.479 172.727 189.4 172.567 189.242 172.434C189.086 172.3 188.888 172.233 188.65 172.233C188.404 172.233 188.212 172.286 188.073 172.393C187.935 172.5 187.865 172.641 187.865 172.813C187.865 172.976 187.929 173.099 188.058 173.182C188.187 173.264 188.42 173.344 188.756 173.419C189.094 173.495 189.368 173.585 189.577 173.689C189.786 173.794 189.941 173.921 190.041 174.069C190.143 174.215 190.194 174.394 190.194 174.606C190.194 174.958 190.053 175.242 189.771 175.457C189.488 175.668 189.122 175.774 188.672 175.774C188.356 175.774 188.076 175.718 187.832 175.606C187.589 175.494 187.398 175.338 187.259 175.139C187.123 174.937 187.055 174.719 187.055 174.485H187.73C187.742 174.712 187.832 174.892 188 175.026C188.171 175.157 188.394 175.223 188.672 175.223C188.928 175.223 189.132 175.171 189.285 175.069C189.441 174.964 189.519 174.826 189.519 174.653ZM193.374 174.653C193.374 174.471 193.305 174.329 193.166 174.23C193.029 174.128 192.79 174.04 192.447 173.967C192.106 173.894 191.835 173.806 191.633 173.704C191.433 173.602 191.285 173.48 191.187 173.339C191.093 173.198 191.045 173.03 191.045 172.835C191.045 172.511 191.181 172.238 191.454 172.014C191.729 171.79 192.079 171.678 192.505 171.678C192.953 171.678 193.315 171.793 193.593 172.025C193.873 172.256 194.013 172.551 194.013 172.912H193.334C193.334 172.727 193.255 172.567 193.097 172.434C192.941 172.3 192.743 172.233 192.505 172.233C192.259 172.233 192.067 172.286 191.929 172.393C191.79 172.5 191.72 172.641 191.72 172.813C191.72 172.976 191.785 173.099 191.914 173.182C192.043 173.264 192.275 173.344 192.611 173.419C192.949 173.495 193.223 173.585 193.432 173.689C193.642 173.794 193.796 173.921 193.896 174.069C193.998 174.215 194.05 174.394 194.05 174.606C194.05 174.958 193.908 175.242 193.626 175.457C193.343 175.668 192.977 175.774 192.527 175.774C192.211 175.774 191.931 175.718 191.687 175.606C191.444 175.494 191.253 175.338 191.114 175.139C190.978 174.937 190.91 174.719 190.91 174.485H191.585C191.597 174.712 191.687 174.892 191.855 175.026C192.026 175.157 192.25 175.223 192.527 175.223C192.783 175.223 192.987 175.171 193.14 175.069C193.296 174.964 193.374 174.826 193.374 174.653ZM195.663 175.701H194.987V171.751H195.663V175.701ZM194.933 170.703C194.933 170.593 194.966 170.501 195.031 170.426C195.1 170.35 195.2 170.313 195.331 170.313C195.462 170.313 195.562 170.35 195.63 170.426C195.698 170.501 195.732 170.593 195.732 170.703C195.732 170.813 195.698 170.904 195.63 170.977C195.562 171.05 195.462 171.086 195.331 171.086C195.2 171.086 195.1 171.05 195.031 170.977C194.966 170.904 194.933 170.813 194.933 170.703ZM196.568 173.689C196.568 173.302 196.644 172.954 196.795 172.645C196.948 172.336 197.16 172.098 197.43 171.93C197.702 171.762 198.013 171.678 198.361 171.678C198.899 171.678 199.333 171.864 199.664 172.236C199.998 172.609 200.164 173.104 200.164 173.722V173.77C200.164 174.154 200.09 174.5 199.942 174.807C199.795 175.111 199.585 175.348 199.31 175.518C199.037 175.689 198.723 175.774 198.368 175.774C197.833 175.774 197.398 175.588 197.065 175.215C196.734 174.843 196.568 174.35 196.568 173.737V173.689ZM197.247 173.77C197.247 174.208 197.349 174.559 197.55 174.825C197.755 175.09 198.028 175.223 198.368 175.223C198.711 175.223 198.984 175.089 199.186 174.821C199.388 174.551 199.489 174.174 199.489 173.689C199.489 173.256 199.386 172.906 199.179 172.638C198.974 172.368 198.701 172.233 198.361 172.233C198.028 172.233 197.758 172.365 197.554 172.631C197.35 172.896 197.247 173.276 197.247 173.77ZM201.65 171.751L201.672 172.247C201.974 171.868 202.368 171.678 202.855 171.678C203.69 171.678 204.111 172.149 204.118 173.091V175.701H203.443V173.087C203.44 172.802 203.374 172.592 203.245 172.456C203.119 172.319 202.921 172.251 202.65 172.251C202.431 172.251 202.239 172.309 202.074 172.426C201.908 172.543 201.779 172.696 201.686 172.886V175.701H201.011V171.751H201.65ZM207.575 175.701C207.536 175.623 207.505 175.484 207.48 175.285C207.166 175.611 206.792 175.774 206.356 175.774C205.966 175.774 205.646 175.664 205.396 175.445C205.148 175.224 205.023 174.944 205.023 174.606C205.023 174.194 205.179 173.876 205.491 173.649C205.805 173.421 206.245 173.306 206.812 173.306H207.469V172.996C207.469 172.76 207.399 172.572 207.257 172.434C207.116 172.293 206.908 172.222 206.633 172.222C206.393 172.222 206.19 172.283 206.027 172.404C205.864 172.526 205.783 172.673 205.783 172.846H205.104C205.104 172.649 205.173 172.459 205.312 172.277C205.453 172.092 205.643 171.946 205.881 171.838C206.122 171.731 206.386 171.678 206.673 171.678C207.129 171.678 207.485 171.792 207.743 172.021C208.001 172.247 208.135 172.56 208.145 172.959V174.777C208.145 175.14 208.191 175.429 208.284 175.643V175.701H207.575ZM206.454 175.186C206.666 175.186 206.867 175.131 207.057 175.022C207.247 174.912 207.384 174.77 207.469 174.595V173.784H206.94C206.113 173.784 205.699 174.027 205.699 174.511C205.699 174.722 205.769 174.888 205.91 175.007C206.052 175.127 206.233 175.186 206.454 175.186ZM209.937 175.701H209.262V170.093H209.937V175.701ZM211 176.76L210.616 176.497C210.845 176.178 210.964 175.85 210.974 175.511V174.901H211.635V175.431C211.635 175.677 211.574 175.922 211.452 176.168C211.333 176.414 211.182 176.611 211 176.76ZM216.782 175.701C216.743 175.623 216.712 175.484 216.687 175.285C216.373 175.611 215.999 175.774 215.563 175.774C215.173 175.774 214.853 175.664 214.603 175.445C214.355 175.224 214.23 174.944 214.23 174.606C214.23 174.194 214.386 173.876 214.698 173.649C215.012 173.421 215.452 173.306 216.019 173.306H216.677V172.996C216.677 172.76 216.606 172.572 216.464 172.434C216.323 172.293 216.115 172.222 215.84 172.222C215.6 172.222 215.398 172.283 215.235 172.404C215.071 172.526 214.99 172.673 214.99 172.846H214.311C214.311 172.649 214.38 172.459 214.519 172.277C214.66 172.092 214.85 171.946 215.088 171.838C215.329 171.731 215.593 171.678 215.88 171.678C216.336 171.678 216.692 171.792 216.95 172.021C217.208 172.247 217.342 172.56 217.352 172.959V174.777C217.352 175.14 217.398 175.429 217.491 175.643V175.701H216.782ZM215.662 175.186C215.873 175.186 216.074 175.131 216.264 175.022C216.454 174.912 216.591 174.77 216.677 174.595V173.784H216.147C215.32 173.784 214.906 174.027 214.906 174.511C214.906 174.722 214.976 174.888 215.118 175.007C215.259 175.127 215.44 175.186 215.662 175.186ZM219.327 170.794V171.751H220.064V172.273H219.327V174.722C219.327 174.881 219.36 175 219.425 175.08C219.491 175.158 219.603 175.197 219.761 175.197C219.839 175.197 219.946 175.183 220.083 175.153V175.701C219.905 175.75 219.732 175.774 219.564 175.774C219.262 175.774 219.035 175.683 218.881 175.5C218.728 175.318 218.651 175.058 218.651 174.722V172.273H217.932V171.751H218.651V170.794H219.327ZM223.295 175.31C223.032 175.62 222.647 175.774 222.138 175.774C221.717 175.774 221.395 175.652 221.174 175.409C220.955 175.163 220.844 174.8 220.842 174.321V171.751H221.517V174.303C221.517 174.901 221.761 175.201 222.247 175.201C222.764 175.201 223.107 175.008 223.277 174.624V171.751H223.952V175.701H223.31L223.295 175.31ZM227.421 175.701C227.381 175.623 227.35 175.484 227.326 175.285C227.012 175.611 226.637 175.774 226.201 175.774C225.812 175.774 225.492 175.664 225.241 175.445C224.993 175.224 224.869 174.944 224.869 174.606C224.869 174.194 225.024 173.876 225.336 173.649C225.65 173.421 226.09 173.306 226.657 173.306H227.314V172.996C227.314 172.76 227.244 172.572 227.103 172.434C226.962 172.293 226.754 172.222 226.479 172.222C226.237 172.222 226.036 172.283 225.872 172.404C225.709 172.526 225.628 172.673 225.628 172.846H224.949C224.949 172.649 225.018 172.459 225.157 172.277C225.298 172.092 225.488 171.946 225.727 171.838C225.967 171.731 226.231 171.678 226.519 171.678C226.974 171.678 227.33 171.792 227.588 172.021C227.846 172.247 227.98 172.56 227.99 172.959V174.777C227.99 175.14 228.036 175.429 228.129 175.643V175.701H227.421ZM226.3 175.186C226.511 175.186 226.712 175.131 226.902 175.022C227.092 174.912 227.229 174.77 227.314 174.595V173.784H226.785C225.957 173.784 225.544 174.027 225.544 174.511C225.544 174.722 225.614 174.888 225.756 175.007C225.897 175.127 226.078 175.186 226.3 175.186ZM229.782 175.701H229.107V170.093H229.782V175.701ZM231.6 175.701H230.925V171.751H231.6V175.701ZM230.87 170.703C230.87 170.593 230.903 170.501 230.969 170.426C231.037 170.35 231.137 170.313 231.268 170.313C231.4 170.313 231.5 170.35 231.568 170.426C231.636 170.501 231.67 170.593 231.67 170.703C231.67 170.813 231.636 170.904 231.568 170.977C231.5 171.05 231.4 171.086 231.268 171.086C231.137 171.086 231.037 171.05 230.969 170.977C230.903 170.904 230.87 170.813 230.87 170.703ZM233.32 175.15H235.631V175.701H232.495V175.205L234.674 172.309H232.528V171.751H235.521V172.229L233.32 175.15ZM238.833 175.701C238.793 175.623 238.762 175.484 238.737 175.285C238.424 175.611 238.049 175.774 237.613 175.774C237.224 175.774 236.904 175.664 236.653 175.445C236.405 175.224 236.281 174.944 236.281 174.606C236.281 174.194 236.436 173.876 236.748 173.649C237.062 173.421 237.502 173.306 238.07 173.306H238.727V172.996C238.727 172.76 238.656 172.572 238.515 172.434C238.374 172.293 238.165 172.222 237.891 172.222C237.65 172.222 237.448 172.283 237.285 172.404C237.121 172.526 237.04 172.673 237.04 172.846H236.361C236.361 172.649 236.43 172.459 236.569 172.277C236.71 172.092 236.9 171.946 237.139 171.838C237.379 171.731 237.643 171.678 237.931 171.678C238.386 171.678 238.743 171.792 239 172.021C239.258 172.247 239.392 172.56 239.402 172.959V174.777C239.402 175.14 239.448 175.429 239.541 175.643V175.701H238.833ZM237.712 175.186C237.923 175.186 238.124 175.131 238.314 175.022C238.504 174.912 238.642 174.77 238.727 174.595V173.784H238.197C237.37 173.784 236.956 174.027 236.956 174.511C236.956 174.722 237.027 174.888 237.168 175.007C237.309 175.127 237.49 175.186 237.712 175.186ZM240.296 173.693C240.296 173.087 240.44 172.6 240.727 172.233C241.014 171.863 241.391 171.678 241.855 171.678C242.318 171.678 242.684 171.836 242.954 172.152V170.093H243.629V175.701H243.009L242.976 175.278C242.706 175.608 242.33 175.774 241.848 175.774C241.391 175.774 241.017 175.586 240.727 175.212C240.44 174.837 240.296 174.348 240.296 173.744V173.693ZM240.972 173.77C240.972 174.218 241.064 174.568 241.249 174.821C241.434 175.074 241.69 175.201 242.016 175.201C242.444 175.201 242.757 175.008 242.954 174.624V172.809C242.752 172.437 242.442 172.251 242.023 172.251C241.692 172.251 241.434 172.379 241.249 172.635C241.064 172.89 240.972 173.268 240.972 173.77ZM244.502 173.689C244.502 173.302 244.578 172.954 244.729 172.645C244.882 172.336 245.093 172.098 245.364 171.93C245.636 171.762 245.947 171.678 246.294 171.678C246.832 171.678 247.267 171.864 247.598 172.236C247.931 172.609 248.098 173.104 248.098 173.722V173.77C248.098 174.154 248.024 174.5 247.875 174.807C247.729 175.111 247.519 175.348 247.244 175.518C246.971 175.689 246.657 175.774 246.302 175.774C245.766 175.774 245.332 175.588 244.999 175.215C244.668 174.843 244.502 174.35 244.502 173.737V173.689ZM245.181 173.77C245.181 174.208 245.282 174.559 245.484 174.825C245.688 175.09 245.961 175.223 246.302 175.223C246.645 175.223 246.918 175.089 247.12 174.821C247.321 174.551 247.422 174.174 247.422 173.689C247.422 173.256 247.319 172.906 247.112 172.638C246.908 172.368 246.635 172.233 246.294 172.233C245.961 172.233 245.692 172.365 245.488 172.631C245.283 172.896 245.181 173.276 245.181 173.77ZM248.923 176.76L248.54 176.497C248.769 176.178 248.888 175.85 248.898 175.511V174.901H249.558V175.431C249.558 175.677 249.497 175.922 249.376 176.168C249.257 176.414 249.106 176.611 248.923 176.76ZM195.404 184.985C195.404 185.586 195.266 186.07 194.991 186.438C194.716 186.805 194.344 186.989 193.874 186.989C193.395 186.989 193.017 186.837 192.743 186.533V188.435H192.067V182.966H192.684L192.717 183.404C192.992 183.063 193.374 182.893 193.863 182.893C194.338 182.893 194.713 183.072 194.987 183.429C195.265 183.787 195.404 184.285 195.404 184.922V184.985ZM194.729 184.908C194.729 184.463 194.634 184.111 194.443 183.853C194.254 183.595 193.993 183.466 193.663 183.466C193.253 183.466 192.947 183.647 192.743 184.01V185.897C192.944 186.257 193.253 186.438 193.67 186.438C193.993 186.438 194.25 186.31 194.44 186.054C194.632 185.796 194.729 185.414 194.729 184.908ZM198.175 183.572C198.072 183.555 197.962 183.546 197.843 183.546C197.4 183.546 197.099 183.735 196.941 184.112V186.916H196.265V182.966H196.922L196.934 183.422C197.155 183.069 197.469 182.893 197.875 182.893C198.007 182.893 198.107 182.91 198.175 182.944V183.572ZM201.092 186.916C201.053 186.838 201.021 186.699 200.997 186.5C200.683 186.826 200.308 186.989 199.872 186.989C199.483 186.989 199.163 186.879 198.912 186.66C198.664 186.439 198.54 186.159 198.54 185.821C198.54 185.409 198.695 185.091 199.007 184.864C199.321 184.636 199.762 184.521 200.329 184.521H200.986V184.211C200.986 183.975 200.915 183.787 200.774 183.649C200.633 183.507 200.425 183.437 200.15 183.437C199.909 183.437 199.707 183.498 199.543 183.619C199.38 183.741 199.299 183.888 199.299 184.061H198.62C198.62 183.864 198.689 183.674 198.828 183.492C198.969 183.307 199.159 183.161 199.398 183.053C199.639 182.946 199.903 182.893 200.19 182.893C200.645 182.893 201.001 183.007 201.259 183.236C201.517 183.462 201.651 183.775 201.661 184.174V185.992C201.661 186.355 201.707 186.643 201.8 186.857V186.916H201.092ZM199.971 186.401C200.183 186.401 200.383 186.346 200.573 186.237C200.763 186.127 200.9 185.985 200.986 185.81V184.999H200.457C199.629 184.999 199.215 185.242 199.215 185.726C199.215 185.937 199.286 186.103 199.427 186.222C199.568 186.342 199.75 186.401 199.971 186.401ZM202.559 184.908C202.559 184.292 202.701 183.803 202.986 183.44C203.271 183.075 203.648 182.893 204.118 182.893C204.6 182.893 204.976 183.063 205.246 183.404L205.279 182.966H205.896V186.821C205.896 187.332 205.744 187.735 205.44 188.029C205.138 188.324 204.731 188.471 204.22 188.471C203.936 188.471 203.657 188.41 203.384 188.289C203.112 188.167 202.904 188 202.76 187.788L203.11 187.383C203.4 187.741 203.754 187.92 204.173 187.92C204.501 187.92 204.757 187.828 204.939 187.643C205.124 187.457 205.217 187.197 205.217 186.861V186.522C204.947 186.833 204.578 186.989 204.111 186.989C203.648 186.989 203.273 186.803 202.986 186.43C202.701 186.058 202.559 185.55 202.559 184.908ZM203.238 184.985C203.238 185.43 203.329 185.78 203.512 186.036C203.694 186.289 203.95 186.416 204.279 186.416C204.705 186.416 205.017 186.222 205.217 185.836V184.032C205.01 183.655 204.7 183.466 204.286 183.466C203.957 183.466 203.7 183.594 203.515 183.85C203.331 184.105 203.238 184.483 203.238 184.985ZM207.553 182.966L207.572 183.404C207.861 183.063 208.252 182.893 208.743 182.893C209.296 182.893 209.672 183.105 209.872 183.528C210.003 183.338 210.173 183.185 210.383 183.068C210.594 182.951 210.844 182.893 211.131 182.893C211.997 182.893 212.438 183.351 212.452 184.269V186.916H211.777V184.309C211.777 184.027 211.713 183.816 211.584 183.678C211.455 183.536 211.238 183.466 210.934 183.466C210.683 183.466 210.475 183.542 210.309 183.693C210.144 183.841 210.048 184.042 210.021 184.295V186.916H209.342V184.328C209.342 183.753 209.061 183.466 208.499 183.466C208.056 183.466 207.753 183.655 207.59 184.032V186.916H206.914V182.966H207.553ZM215.914 186.916C215.874 186.838 215.843 186.699 215.819 186.5C215.505 186.826 215.13 186.989 214.694 186.989C214.305 186.989 213.985 186.879 213.734 186.66C213.486 186.439 213.362 186.159 213.362 185.821C213.362 185.409 213.517 185.091 213.829 184.864C214.143 184.636 214.583 184.521 215.15 184.521H215.807V184.211C215.807 183.975 215.737 183.787 215.596 183.649C215.455 183.507 215.247 183.437 214.972 183.437C214.73 183.437 214.529 183.498 214.365 183.619C214.202 183.741 214.121 183.888 214.121 184.061H213.442C213.442 183.864 213.511 183.674 213.65 183.492C213.791 183.307 213.981 183.161 214.22 183.053C214.46 182.946 214.724 182.893 215.012 182.893C215.467 182.893 215.823 183.007 216.081 183.236C216.339 183.462 216.473 183.775 216.483 184.174V185.992C216.483 186.355 216.529 186.643 216.622 186.857V186.916H215.914ZM214.793 186.401C215.004 186.401 215.205 186.346 215.395 186.237C215.585 186.127 215.722 185.985 215.807 185.81V184.999H215.278C214.45 184.999 214.037 185.242 214.037 185.726C214.037 185.937 214.107 186.103 214.249 186.222C214.39 186.342 214.571 186.401 214.793 186.401ZM215.417 181.308H216.235L215.256 182.382H214.712L215.417 181.308ZM218.458 182.009V182.966H219.195V183.488H218.458V185.937C218.458 186.096 218.491 186.215 218.557 186.295C218.622 186.373 218.734 186.412 218.893 186.412C218.97 186.412 219.078 186.398 219.214 186.368V186.916C219.036 186.964 218.863 186.989 218.695 186.989C218.393 186.989 218.166 186.898 218.013 186.715C217.859 186.533 217.783 186.273 217.783 185.937V183.488H217.064V182.966H217.783V182.009H218.458ZM220.721 186.916H220.046V182.966H220.721V186.916ZM219.991 181.918C219.991 181.808 220.024 181.716 220.09 181.641C220.158 181.565 220.258 181.528 220.389 181.528C220.521 181.528 220.621 181.565 220.688 181.641C220.757 181.716 220.791 181.808 220.791 181.918C220.791 182.028 220.757 182.119 220.688 182.192C220.621 182.265 220.521 182.301 220.389 182.301C220.258 182.301 220.158 182.265 220.09 182.192C220.024 182.119 219.991 182.028 219.991 181.918ZM223.39 186.438C223.631 186.438 223.842 186.364 224.022 186.219C224.202 186.072 224.301 185.89 224.321 185.671H224.96C224.948 185.897 224.87 186.113 224.726 186.317C224.583 186.522 224.39 186.685 224.15 186.807C223.911 186.928 223.658 186.989 223.39 186.989C222.852 186.989 222.424 186.81 222.105 186.452C221.789 186.092 221.63 185.6 221.63 184.978V184.864C221.63 184.479 221.701 184.138 221.842 183.838C221.983 183.539 222.186 183.307 222.448 183.141C222.714 182.976 223.026 182.893 223.386 182.893C223.829 182.893 224.197 183.025 224.489 183.291C224.783 183.556 224.94 183.9 224.96 184.324H224.321C224.301 184.068 224.204 183.859 224.029 183.696C223.856 183.53 223.642 183.448 223.386 183.448C223.043 183.448 222.777 183.572 222.587 183.82C222.4 184.066 222.306 184.422 222.306 184.89V185.018C222.306 185.472 222.4 185.823 222.587 186.069C222.774 186.315 223.042 186.438 223.39 186.438ZM225.54 184.904C225.54 184.517 225.616 184.169 225.767 183.86C225.92 183.551 226.132 183.313 226.402 183.145C226.674 182.977 226.985 182.893 227.333 182.893C227.871 182.893 228.305 183.079 228.636 183.451C228.97 183.824 229.136 184.319 229.136 184.937V184.985C229.136 185.369 229.062 185.715 228.914 186.022C228.767 186.326 228.557 186.563 228.282 186.733C228.009 186.904 227.695 186.989 227.34 186.989C226.805 186.989 226.37 186.803 226.037 186.43C225.706 186.058 225.54 185.565 225.54 184.952V184.904ZM226.219 184.985C226.219 185.423 226.321 185.774 226.522 186.04C226.727 186.305 227 186.438 227.34 186.438C227.683 186.438 227.956 186.304 228.158 186.036C228.36 185.766 228.461 185.389 228.461 184.904C228.461 184.471 228.357 184.121 228.15 183.853C227.946 183.583 227.673 183.448 227.333 183.448C227 183.448 226.73 183.58 226.526 183.846C226.321 184.111 226.219 184.491 226.219 184.985Z" fill="#04D361"/>
<path d="M11.1602 158.751H6.83958L6.01818 161.215H3.39789L7.84991 149.255H10.1334L14.6101 161.215H11.9898L11.1602 158.751ZM7.50491 156.755H10.4949L8.99168 152.278L7.50491 156.755ZM18.2654 150.143V152.327H19.785V154.069H18.2654V158.504C18.2654 158.833 18.3284 159.068 18.4543 159.211C18.5802 159.353 18.8212 159.424 19.1771 159.424C19.44 159.424 19.6727 159.405 19.8753 159.367V161.166C19.4099 161.308 18.9307 161.379 18.4378 161.379C16.7731 161.379 15.9243 160.539 15.8915 158.857V154.069H14.5937V152.327H15.8915V150.143H18.2654ZM23.6127 161.215H21.2307V152.327H23.6127V161.215ZM21.091 150.028C21.091 149.671 21.2087 149.379 21.4442 149.149C21.6851 148.919 22.011 148.803 22.4217 148.803C22.8269 148.803 23.15 148.919 23.3909 149.149C23.6319 149.379 23.7524 149.671 23.7524 150.028C23.7524 150.389 23.6292 150.685 23.3828 150.914C23.1418 151.144 22.8214 151.259 22.4217 151.259C22.022 151.259 21.6988 151.144 21.4524 150.914C21.2115 150.685 21.091 150.389 21.091 150.028ZM28.418 150.143V152.327H29.9376V154.069H28.418V158.504C28.418 158.833 28.4809 159.068 28.6069 159.211C28.7328 159.353 28.9738 159.424 29.3297 159.424C29.5926 159.424 29.8253 159.405 30.0279 159.367V161.166C29.5625 161.308 29.0833 161.379 28.5905 161.379C26.9257 161.379 26.077 160.539 26.0441 158.857V154.069H24.7463V152.327H26.0441V150.143H28.418ZM36.5828 160.311C35.9968 161.023 35.1864 161.379 34.1514 161.379C33.1985 161.379 32.4702 161.106 31.9664 160.558C31.4681 160.01 31.2135 159.208 31.2025 158.151V152.327H33.5764V158.069C33.5764 158.994 33.9981 159.457 34.8414 159.457C35.6464 159.457 36.1994 159.178 36.5006 158.619V152.327H38.8827V161.215H36.6485L36.5828 160.311ZM40.3037 156.706C40.3037 155.32 40.6131 154.216 41.2319 153.395C41.8562 152.574 42.7077 152.163 43.7865 152.163C44.6517 152.163 45.3664 152.486 45.9304 153.132V148.598H48.3126V161.215H46.1686L46.0536 160.271C45.4622 161.01 44.701 161.379 43.7701 161.379C42.7242 161.379 41.8836 160.969 41.2484 160.147C40.6186 159.32 40.3037 158.173 40.3037 156.706ZM42.6776 156.878C42.6776 157.71 42.8227 158.348 43.1129 158.792C43.4032 159.236 43.8249 159.457 44.3779 159.457C45.1117 159.457 45.6292 159.148 45.9304 158.529V155.021C45.6347 154.403 45.1227 154.093 44.3943 154.093C43.2499 154.093 42.6776 155.021 42.6776 156.878ZM54.243 161.379C52.9397 161.379 51.8776 160.979 51.0561 160.18C50.2402 159.38 49.8322 158.315 49.8322 156.985V156.755C49.8322 155.862 50.0047 155.065 50.3495 154.364C50.6944 153.658 51.1818 153.116 51.8117 152.738C52.4467 152.355 53.1696 152.163 53.9804 152.163C55.1958 152.163 56.1514 152.546 56.8467 153.313C57.5477 154.079 57.8981 155.167 57.8981 156.574V157.543H52.2388C52.3154 158.124 52.5453 158.589 52.929 158.94C53.3178 159.29 53.8075 159.465 54.3991 159.465C55.3135 159.465 56.028 159.134 56.543 158.471L57.7093 159.778C57.3533 160.281 56.8715 160.676 56.2635 160.96C55.6561 161.24 54.9822 161.379 54.243 161.379ZM53.972 154.085C53.5009 154.085 53.1178 154.244 52.822 154.562C52.5318 154.879 52.3458 155.334 52.2635 155.925H55.5654V155.736C55.5547 155.21 55.4121 154.805 55.1383 154.521C54.8645 154.23 54.4757 154.085 53.972 154.085Z" fill="#E1E1E6"/>
<path d="M4.66925 174.014C4.60353 174.577 4.39544 175.011 4.04498 175.318C3.69694 175.622 3.2333 175.774 2.65406 175.774C2.02614 175.774 1.52234 175.549 1.14267 175.099C0.76543 174.648 0.576813 174.046 0.576813 173.292V172.78C0.576813 172.286 0.66443 171.852 0.839663 171.477C1.01733 171.102 1.26801 170.815 1.59171 170.615C1.9154 170.414 2.29021 170.313 2.71612 170.313C3.28076 170.313 3.73345 170.471 4.07418 170.787C4.41492 171.101 4.61327 171.537 4.66925 172.094H3.96466C3.90382 171.671 3.77117 171.364 3.56673 171.174C3.36473 170.984 3.08119 170.889 2.71612 170.889C2.2683 170.889 1.91662 171.055 1.66107 171.386C1.40795 171.717 1.2814 172.188 1.2814 172.799V173.314C1.2814 173.89 1.40187 174.349 1.64281 174.69C1.88376 175.03 2.22084 175.201 2.65406 175.201C3.04347 175.201 3.34161 175.113 3.54848 174.938C3.75779 174.76 3.89651 174.452 3.96466 174.014H4.66925ZM6.25729 175.701H5.58192V170.093H6.25729V175.701ZM9.78023 175.701C9.74131 175.623 9.70963 175.484 9.68533 175.285C9.37136 175.611 8.99654 175.774 8.56089 175.774C8.17149 175.774 7.85145 175.664 7.60075 175.445C7.35252 175.224 7.22841 174.944 7.22841 174.606C7.22841 174.194 7.38416 173.876 7.6957 173.649C8.00963 173.421 8.45014 173.306 9.01724 173.306H9.67435V172.996C9.67435 172.76 9.60378 172.572 9.46262 172.434C9.32145 172.293 9.11336 172.222 8.83836 172.222C8.59738 172.222 8.39537 172.283 8.23234 172.404C8.06925 172.526 7.98776 172.673 7.98776 172.846H7.30869C7.30869 172.649 7.37808 172.459 7.51678 172.277C7.65794 172.092 7.8478 171.946 8.08631 171.838C8.32724 171.731 8.59131 171.678 8.8785 171.678C9.33364 171.678 9.69019 171.792 9.94818 172.021C10.2061 172.247 10.34 172.56 10.3497 172.959V174.777C10.3497 175.14 10.396 175.429 10.4885 175.643V175.701H9.78023ZM8.65944 175.186C8.87121 175.186 9.07201 175.131 9.26182 175.022C9.45168 174.912 9.58916 174.77 9.67435 174.595V173.784H9.145C8.31752 173.784 7.90379 174.027 7.90379 174.511C7.90379 174.722 7.97435 174.888 8.11551 175.007C8.25668 175.127 8.43799 175.186 8.65944 175.186ZM13.3178 172.357C13.2155 172.34 13.1048 172.331 12.9856 172.331C12.5426 172.331 12.242 172.52 12.0838 172.897V175.701H11.4085V171.751H12.0656L12.0765 172.207C12.298 171.854 12.612 171.678 13.0184 171.678C13.1498 171.678 13.2496 171.695 13.3178 171.729V172.357ZM15.5082 175.774C14.9728 175.774 14.5371 175.599 14.2012 175.248C13.8654 174.895 13.6974 174.424 13.6974 173.836V173.711C13.6974 173.32 13.7717 172.97 13.9201 172.664C14.071 172.355 14.2803 172.114 14.548 171.941C14.8182 171.765 15.1102 171.678 15.4242 171.678C15.9378 171.678 16.3369 171.847 16.6216 172.186C16.9064 172.524 17.0488 173.008 17.0488 173.638V173.92H14.3728C14.3825 174.309 14.4957 174.624 14.7123 174.865C14.9314 175.103 15.2088 175.223 15.5447 175.223C15.7832 175.223 15.9852 175.174 16.1507 175.077C16.3162 174.979 16.461 174.85 16.5851 174.69L16.9977 175.011C16.6667 175.52 16.1702 175.774 15.5082 175.774ZM15.4242 172.233C15.1516 172.233 14.9228 172.333 14.7379 172.532C14.5529 172.729 14.4385 173.007 14.3947 173.364H16.3734V173.314C16.3539 172.97 16.2614 172.705 16.0959 172.518C15.9304 172.328 15.7065 172.233 15.4242 172.233ZM18.4689 175.15H20.7798V175.701H17.6438V175.205L19.8233 172.309H17.6767V171.751H20.6703V172.229L18.4689 175.15ZM23.9814 175.701C23.9425 175.623 23.9109 175.484 23.8865 175.285C23.5726 175.611 23.1978 175.774 22.7621 175.774C22.3727 175.774 22.0527 175.664 21.802 175.445C21.5537 175.224 21.4296 174.944 21.4296 174.606C21.4296 174.194 21.5854 173.876 21.8969 173.649C22.2108 173.421 22.6514 173.306 23.2185 173.306H23.8756V172.996C23.8756 172.76 23.805 172.572 23.6638 172.434C23.5227 172.293 23.3146 172.222 23.0396 172.222C22.7986 172.222 22.5966 172.283 22.4336 172.404C22.2705 172.526 22.189 172.673 22.189 172.846H21.5099C21.5099 172.649 21.5793 172.459 21.718 172.277C21.8592 172.092 22.049 171.946 22.2875 171.838C22.5285 171.731 22.7925 171.678 23.0797 171.678C23.5349 171.678 23.8914 171.792 24.1494 172.021C24.4074 172.247 24.5412 172.56 24.551 172.959V174.777C24.551 175.14 24.5972 175.429 24.6897 175.643V175.701H23.9814ZM22.8607 175.186C23.0724 175.186 23.2732 175.131 23.463 175.022C23.6529 174.912 23.7904 174.77 23.8756 174.595V173.784H23.3462C22.5187 173.784 22.105 174.027 22.105 174.511C22.105 174.722 22.1756 174.888 22.3167 175.007C22.4579 175.127 22.6392 175.186 22.8607 175.186ZM25.5878 176.76L25.2044 176.497C25.4332 176.178 25.5525 175.85 25.5622 175.511V174.901H26.223V175.431C26.223 175.677 26.1621 175.922 26.0405 176.168C25.9212 176.414 25.7703 176.611 25.5878 176.76ZM28.7675 173.693C28.7675 173.087 28.9111 172.6 29.1983 172.233C29.4855 171.863 29.8615 171.678 30.3264 171.678C30.7888 171.678 31.1551 171.836 31.4252 172.152V170.093H32.1006V175.701H31.48L31.4471 175.278C31.177 175.608 30.801 175.774 30.3191 175.774C29.8615 175.774 29.4879 175.586 29.1983 175.212C28.9111 174.837 28.7675 174.348 28.7675 173.744V173.693ZM29.4429 173.77C29.4429 174.218 29.5354 174.568 29.7204 174.821C29.9053 175.074 30.1609 175.201 30.487 175.201C30.9154 175.201 31.2281 175.008 31.4252 174.624V172.809C31.2232 172.437 30.9129 172.251 30.4943 172.251C30.1633 172.251 29.9053 172.379 29.7204 172.635C29.5354 172.89 29.4429 173.268 29.4429 173.77ZM33.8858 175.701H33.2104V171.751H33.8858V175.701ZM33.1557 170.703C33.1557 170.593 33.1885 170.501 33.2542 170.426C33.3224 170.35 33.4221 170.313 33.5536 170.313C33.685 170.313 33.7848 170.35 33.8529 170.426C33.9211 170.501 33.9552 170.593 33.9552 170.703C33.9552 170.813 33.9211 170.904 33.8529 170.977C33.7848 171.05 33.685 171.086 33.5536 171.086C33.4221 171.086 33.3224 171.05 33.2542 170.977C33.1885 170.904 33.1557 170.813 33.1557 170.703ZM37.27 174.653C37.27 174.471 37.2007 174.329 37.0619 174.23C36.9256 174.128 36.6859 174.04 36.3427 173.967C36.002 173.894 35.7306 173.806 35.5286 173.704C35.3291 173.602 35.1806 173.48 35.0832 173.339C34.9883 173.198 34.9408 173.03 34.9408 172.835C34.9408 172.511 35.0771 172.238 35.3497 172.014C35.6248 171.79 35.9752 171.678 36.4011 171.678C36.849 171.678 37.2116 171.793 37.4891 172.025C37.7689 172.256 37.9089 172.551 37.9089 172.912H37.2299C37.2299 172.727 37.1507 172.567 36.9926 172.434C36.8368 172.3 36.6397 172.233 36.4011 172.233C36.1553 172.233 35.963 172.286 35.8243 172.393C35.6856 172.5 35.6163 172.641 35.6163 172.813C35.6163 172.976 35.6807 173.099 35.8097 173.182C35.9387 173.265 36.1711 173.344 36.507 173.419C36.8453 173.495 37.1191 173.585 37.3284 173.689C37.5377 173.794 37.6923 173.921 37.7921 174.069C37.8943 174.215 37.9454 174.394 37.9454 174.606C37.9454 174.958 37.8042 175.242 37.5219 175.457C37.2396 175.668 36.8733 175.774 36.423 175.774C36.1066 175.774 35.8268 175.718 35.5834 175.606C35.34 175.494 35.149 175.338 35.0102 175.139C34.8739 174.937 34.8058 174.719 34.8058 174.485H35.4812C35.4933 174.712 35.5834 174.892 35.7513 175.026C35.9217 175.157 36.1456 175.223 36.423 175.223C36.6786 175.223 36.883 175.172 37.0364 175.069C37.1921 174.965 37.27 174.826 37.27 174.653ZM40.4096 175.223C40.6506 175.223 40.8611 175.15 41.0412 175.004C41.2213 174.857 41.3211 174.675 41.3406 174.456H41.9794C41.9672 174.682 41.8893 174.898 41.7457 175.102C41.6021 175.307 41.4099 175.47 41.169 175.592C40.9304 175.713 40.6773 175.774 40.4096 175.774C39.8717 175.774 39.4434 175.595 39.1246 175.237C38.8082 174.877 38.65 174.386 38.65 173.763V173.649C38.65 173.265 38.7206 172.923 38.8617 172.623C39.0028 172.324 39.2049 172.092 39.4677 171.926C39.733 171.761 40.0457 171.678 40.406 171.678C40.8489 171.678 41.2164 171.81 41.5085 172.076C41.8029 172.341 41.9599 172.686 41.9794 173.109H41.3406C41.3211 172.853 41.2237 172.644 41.0485 172.481C40.8757 172.315 40.6615 172.233 40.406 172.233C40.0628 172.233 39.7963 172.357 39.6064 172.605C39.4191 172.851 39.3253 173.207 39.3253 173.675V173.803C39.3253 174.257 39.4191 174.608 39.6064 174.854C39.7939 175.1 40.0616 175.223 40.4096 175.223ZM43.4725 175.701H42.7971V171.751H43.4725V175.701ZM42.7424 170.703C42.7424 170.593 42.7753 170.501 42.841 170.426C42.9091 170.35 43.0089 170.313 43.1403 170.313C43.2718 170.313 43.3715 170.35 43.4397 170.426C43.5078 170.501 43.5419 170.593 43.5419 170.703C43.5419 170.813 43.5078 170.904 43.4397 170.977C43.3715 171.05 43.2718 171.086 43.1403 171.086C43.0089 171.086 42.9091 171.05 42.841 170.977C42.7753 170.904 42.7424 170.813 42.7424 170.703ZM47.8935 173.77C47.8935 174.371 47.7561 174.855 47.4808 175.223C47.2061 175.59 46.8336 175.774 46.3639 175.774C45.8844 175.774 45.5072 175.622 45.2322 175.318V177.22H44.5568V171.751H45.1738L45.2066 172.189C45.4816 171.848 45.8637 171.678 46.3529 171.678C46.8276 171.678 47.2023 171.857 47.4776 172.215C47.7547 172.572 47.8935 173.07 47.8935 173.707V173.77ZM47.2182 173.693C47.2182 173.248 47.1234 172.896 46.9336 172.638C46.7435 172.38 46.4832 172.251 46.1521 172.251C45.7433 172.251 45.4366 172.432 45.2322 172.795V174.682C45.4342 175.043 45.7433 175.223 46.1594 175.223C46.4832 175.223 46.7397 175.095 46.9299 174.839C47.122 174.581 47.2182 174.199 47.2182 173.693ZM49.4888 175.701H48.8135V170.093H49.4888V175.701ZM51.307 175.701H50.6318V171.751H51.307V175.701ZM50.5766 170.703C50.5766 170.593 50.6098 170.501 50.6752 170.426C50.7435 170.35 50.8435 170.313 50.9748 170.313C51.1061 170.313 51.2061 170.35 51.2743 170.426C51.3421 170.501 51.3762 170.593 51.3762 170.703C51.3762 170.813 51.3421 170.904 51.2743 170.977C51.2061 171.05 51.1061 171.086 50.9748 171.086C50.8435 171.086 50.7435 171.05 50.6752 170.977C50.6098 170.904 50.5766 170.813 50.5766 170.703ZM53.0299 171.751L53.0519 172.247C53.3537 171.868 53.7481 171.678 54.2346 171.678C55.0696 171.678 55.4907 172.149 55.4981 173.091V175.701H54.8224V173.087C54.8201 172.802 54.7542 172.592 54.6252 172.456C54.4991 172.319 54.3005 172.251 54.0304 172.251C53.8112 172.251 53.6192 172.309 53.4537 172.426C53.2878 172.543 53.1589 172.696 53.0664 172.886V175.701H52.3911V171.751H53.0299ZM58.9551 175.701C58.9164 175.623 58.8846 175.484 58.8603 175.285C58.5463 175.611 58.1715 175.774 57.736 175.774C57.3463 175.774 57.0262 175.664 56.7757 175.445C56.5276 175.224 56.4033 174.944 56.4033 174.606C56.4033 174.194 56.5589 173.876 56.8706 173.649C57.1846 173.421 57.6252 173.306 58.1921 173.306H58.8495V172.996C58.8495 172.76 58.7785 172.572 58.6374 172.434C58.4963 172.293 58.2883 172.222 58.0131 172.222C57.7724 172.222 57.5706 172.283 57.4075 172.404C57.2444 172.526 57.1626 172.673 57.1626 172.846H56.4836C56.4836 172.649 56.5528 172.459 56.6916 172.277C56.8327 172.092 57.0229 171.946 57.2612 171.838C57.5023 171.731 57.7664 171.678 58.0533 171.678C58.5084 171.678 58.865 171.792 59.1229 172.021C59.3813 172.247 59.515 172.56 59.5248 172.959V174.777C59.5248 175.14 59.571 175.429 59.6636 175.643V175.701H58.9551ZM57.8346 175.186C58.0463 175.186 58.2467 175.131 58.4369 175.022C58.6266 174.912 58.764 174.77 58.8495 174.595V173.784H58.3201C57.4925 173.784 57.0785 174.027 57.0785 174.511C57.0785 174.722 57.1491 174.888 57.2906 175.007C57.4318 175.127 57.6131 175.186 57.8346 175.186ZM60.5617 176.76L60.178 176.497C60.407 176.178 60.5262 175.85 60.536 175.511V174.901H61.1967V175.431C61.1967 175.677 61.136 175.922 61.014 176.168C60.8949 176.414 60.7439 176.611 60.5617 176.76ZM23.6273 184.985C23.6273 185.586 23.4898 186.07 23.2148 186.438C22.9398 186.805 22.5674 186.989 22.0977 186.989C21.6182 186.989 21.241 186.837 20.966 186.533V188.435H20.2906V182.966H20.9076L20.9404 183.404C21.2154 183.063 21.5976 182.893 22.0867 182.893C22.5613 182.893 22.9361 183.071 23.2112 183.429C23.4886 183.787 23.6273 184.285 23.6273 184.922V184.985ZM22.952 184.908C22.952 184.463 22.8571 184.111 22.6672 183.853C22.4774 183.595 22.217 183.466 21.8859 183.466C21.4771 183.466 21.1704 183.647 20.966 184.01V185.897C21.168 186.257 21.4771 186.438 21.8933 186.438C22.217 186.438 22.4737 186.31 22.6636 186.054C22.8558 185.796 22.952 185.414 22.952 184.908ZM26.9276 186.916C26.8886 186.838 26.857 186.699 26.8327 186.5C26.5187 186.826 26.1439 186.989 25.7082 186.989C25.3188 186.989 24.9988 186.879 24.7481 186.66C24.4999 186.439 24.3757 186.159 24.3757 185.821C24.3757 185.409 24.5315 185.091 24.843 184.864C25.157 184.636 25.5975 184.521 26.1646 184.521H26.8217V184.211C26.8217 183.975 26.7511 183.787 26.61 183.649C26.4688 183.507 26.2607 183.437 25.9857 183.437C25.7448 183.437 25.5428 183.498 25.3797 183.619C25.2166 183.741 25.1351 183.888 25.1351 184.061H24.456C24.456 183.864 24.5254 183.674 24.6641 183.492C24.8053 183.307 24.9951 183.161 25.2336 183.053C25.4746 182.946 25.7386 182.893 26.0258 182.893C26.481 182.893 26.8375 183.007 27.0955 183.236C27.3535 183.462 27.4873 183.775 27.4971 184.174V185.992C27.4971 186.355 27.5433 186.643 27.6358 186.857V186.916H26.9276ZM25.8068 186.401C26.0186 186.401 26.2193 186.346 26.4092 186.237C26.599 186.127 26.7365 185.985 26.8217 185.81V184.999H26.2923C25.4649 184.999 25.0511 185.242 25.0511 185.726C25.0511 185.937 25.1217 186.103 25.2628 186.222C25.404 186.342 25.5853 186.401 25.8068 186.401ZM29.2896 186.916H28.6142V182.966H29.2896V186.916ZM28.5594 181.918C28.5594 181.808 28.5923 181.716 28.658 181.641C28.7262 181.565 28.8259 181.528 28.9574 181.528C29.0888 181.528 29.1886 181.565 29.2567 181.641C29.3249 181.716 29.3589 181.808 29.3589 181.918C29.3589 182.028 29.3249 182.119 29.2567 182.192C29.1886 182.265 29.0888 182.301 28.9574 182.301C28.8259 182.301 28.7262 182.265 28.658 182.192C28.5923 182.119 28.5594 182.028 28.5594 181.918ZM31.699 184.408L32.5752 182.966H33.3637L32.0714 184.919L33.4039 186.916H32.6227L31.71 185.437L30.7973 186.916H30.0124L31.3449 184.919L30.0526 182.966H30.8338L31.699 184.408ZM36.5216 186.916C36.4827 186.838 36.451 186.699 36.4267 186.5C36.1127 186.826 35.7379 186.989 35.3023 186.989C34.9128 186.989 34.5928 186.879 34.3421 186.66C34.0939 186.439 33.9698 186.159 33.9698 185.821C33.9698 185.409 34.1255 185.091 34.4371 184.864C34.751 184.636 35.1915 184.521 35.7586 184.521H36.4157V184.211C36.4157 183.975 36.3451 183.787 36.204 183.649C36.0628 183.507 35.8548 183.437 35.5797 183.437C35.3388 183.437 35.1368 183.498 34.9737 183.619C34.8107 183.741 34.7291 183.888 34.7291 184.061H34.0501C34.0501 183.864 34.1194 183.674 34.2582 183.492C34.3993 183.307 34.5892 183.161 34.8277 183.053C35.0686 182.946 35.3327 182.893 35.6199 182.893C36.075 182.893 36.4315 183.007 36.6895 183.236C36.9475 183.462 37.0814 183.775 37.0911 184.174V185.992C37.0911 186.355 37.1374 186.643 37.2299 186.857V186.916H36.5216ZM35.4008 186.401C35.6126 186.401 35.8134 186.346 36.0032 186.237C36.193 186.127 36.3306 185.985 36.4157 185.81V184.999H35.8864C35.0589 184.999 34.6451 185.242 34.6451 185.726C34.6451 185.937 34.7157 186.103 34.8569 186.222C34.998 186.342 35.1794 186.401 35.4008 186.401ZM36.9889 181.425C36.9889 181.688 36.9135 181.901 36.7626 182.064C36.6141 182.227 36.4279 182.309 36.204 182.309C36.1042 182.309 36.0178 182.297 35.9448 182.272C35.8718 182.248 35.7757 182.198 35.6564 182.122C35.5396 182.047 35.4544 182.002 35.4008 181.987C35.3497 181.971 35.2901 181.962 35.222 181.962C35.1222 181.962 35.037 182.001 34.9664 182.079C34.8958 182.154 34.8606 182.251 34.8606 182.371L34.4078 182.345C34.4078 182.085 34.4809 181.87 34.6269 181.699C34.7754 181.529 34.9628 181.443 35.1891 181.443C35.2743 181.443 35.3509 181.456 35.4191 181.48C35.4872 181.504 35.5797 181.552 35.6965 181.622C35.8134 181.693 35.9022 181.739 35.963 181.761C36.0264 181.783 36.0957 181.794 36.1711 181.794C36.2758 181.794 36.3622 181.753 36.4303 181.67C36.5009 181.587 36.5362 181.491 36.5362 181.381L36.9889 181.425ZM37.9709 184.904C37.9709 184.517 38.0464 184.169 38.1973 183.86C38.3506 183.551 38.5623 183.313 38.8325 183.145C39.1051 182.977 39.4154 182.893 39.7635 182.893C40.3013 182.893 40.7357 183.079 41.0667 183.451C41.4002 183.824 41.5669 184.319 41.5669 184.937V184.985C41.5669 185.369 41.4927 185.715 41.3442 186.021C41.1982 186.326 40.9876 186.563 40.7126 186.733C40.44 186.904 40.1261 186.989 39.7707 186.989C39.2353 186.989 38.8009 186.803 38.4674 186.43C38.1364 186.058 37.9709 185.565 37.9709 184.952V184.904ZM38.65 184.985C38.65 185.423 38.751 185.774 38.953 186.04C39.1574 186.305 39.43 186.438 39.7707 186.438C40.1139 186.438 40.3865 186.304 40.5885 186.036C40.7905 185.766 40.8915 185.389 40.8915 184.904C40.8915 184.471 40.7881 184.121 40.5812 183.853C40.3767 183.583 40.1042 183.448 39.7635 183.448C39.43 183.448 39.1611 183.58 38.9566 183.846C38.7522 184.111 38.65 184.491 38.65 184.985Z" fill="#04D361"/>
<defs>
<radialGradient id="paint0_radial" cx="0" cy="0" r="1" gradientUnits="userSpaceOnUse" gradientTransform="translate(122.897 109.346) rotate(90) scale(188.785)">
<stop stop-color="#04D361" stop-opacity="0.4"/>
<stop offset="0.390625" stop-color="#0F2C1D"/>
<stop offset="1" stop-color="#11251C" stop-opacity="0"/>
</radialGradient>
</defs>
</svg>
