<svg width="1em" height="1em" viewBox="0 0 42 42" fill="none" stroke="currentColor" class="css-m6abob"><path d="M21.473 24.184h-1.957l-.153-12.247h2.274l-.164 12.247zM19.28 27.91c0-.351.106-.644.317-.879.218-.242.539-.363.96-.363.422 0 .743.121.962.363.218.235.328.528.328.88 0 .35-.11.644-.328.878-.22.227-.54.34-.961.34-.422 0-.743-.113-.961-.34-.211-.234-.317-.527-.317-.879z" fill="#fff" stroke-width="0"></path><circle cx="21" cy="21" r="20.25" stroke="currentColor" stroke-width="1.5"></circle></svg>