<svg width="81" height="80" viewBox="0 0 81 80" fill="none" xmlns="http://www.w3.org/2000/svg"><path d="M76.0528 0H4.00278C1.79211 0 0 1.79086 0 4V76C0 78.2091 1.79211 80 4.00278 80H76.0528C78.2635 80 80.0556 78.2091 80.0556 76V4C80.0556 1.79086 78.2635 0 76.0528 0Z" fill="#B13AF0"></path><path fill-rule="evenodd" clip-rule="evenodd" d="M41.6303 14.1333C37.3733 15.4724 33.264 19.3807 29.3022 25.8584C23.3595 35.5749 15.6843 49.3823 26.2531 60.3144C31.1426 65.3719 39.2158 68.3568 49.8105 63.6293C58.3218 59.8316 60.6889 48.9329 57.6332 43.8115C51.33 33.2469 44.9351 30.6412 43.2227 24.0895C42.081 19.7218 41.5502 16.403 41.6303 14.1333Z" fill="url(#elixir0_linear)"></path><path fill-rule="evenodd" clip-rule="evenodd" d="M41.6302 14C37.3516 15.3529 33.2423 19.2613 29.3021 25.7251C23.3918 35.421 15.6842 49.2491 26.253 60.1811C31.1425 65.2386 39.1118 66.873 43.5337 63.8734C46.4165 61.918 48.3771 60.054 49.5067 56.1267C50.7645 51.7538 49.7994 45.8664 49.1382 43.1618C48.3014 39.7395 48.0275 35.9832 48.3165 31.893C48.2147 31.7829 48.1386 31.7005 48.0883 31.6458C45.7861 29.1456 44.0097 26.9678 43.2226 23.9562C42.0809 19.5885 41.5501 16.2697 41.6302 14Z" fill="url(#elixir1_linear)"></path><path fill-rule="evenodd" clip-rule="evenodd" d="M38.0875 15.7012C34.1024 18.4962 31.1393 23.1845 29.1984 29.7659C26.287 39.6381 25.9715 48.7419 26.9983 54.0371C28.9888 64.3021 39.3084 68.1986 49.8933 63.4206C56.4074 60.4801 59.1206 54.1685 58.9769 47.3175C58.828 40.2238 43.3812 32.1842 40.6455 26.2641C38.8218 22.3173 37.9691 18.7963 38.0875 15.7012Z" fill="url(#elixir2_linear)"></path><path fill-rule="evenodd" clip-rule="evenodd" d="M48.1901 34.2102C52.9695 39.6496 54.0113 43.4361 51.3156 45.5697C47.2719 48.7701 37.3836 50.8582 31.232 46.9868C27.1309 44.4059 25.5792 38.8693 26.5769 30.377C24.884 33.5145 23.4526 36.6928 22.2827 39.9119C21.1129 43.1311 20.7713 46.4999 21.2579 50.0183C22.724 52.6504 26.2886 54.4084 31.9516 55.2921C40.4463 56.6177 48.4862 55.9627 53.881 53.5493C57.4776 51.9404 59.1787 50.3387 58.9845 48.7444C59.1143 46.39 58.2961 44.1487 56.5301 42.0206C54.7641 39.8925 51.9841 37.289 48.1901 34.2102Z" fill="url(#elixir3_linear)"></path><path fill-rule="evenodd" clip-rule="evenodd" d="M29.5139 28.7783C29.474 32.7068 30.6122 36.4412 32.9286 39.9817C36.4032 45.2924 40.459 50.54 46.5282 54.8898C50.5743 57.7897 53.8073 58.7266 56.2272 57.7005C54.2396 60.8573 52.1262 62.4042 49.887 62.3411C46.5282 62.2465 42.4326 60.9438 35.8706 53.9457C31.4959 49.2803 28.5031 44.8672 26.8923 40.7062C27.1478 39.0555 27.4186 37.4114 27.7049 35.7738C27.9912 34.1362 28.5942 31.8044 29.5139 28.7783Z" fill="url(#elixir4_linear)"></path><path fill-rule="evenodd" clip-rule="evenodd" d="M39.7788 34.1692C40.1501 37.3694 41.5533 42.4886 39.7788 45.8969C38.0043 49.3052 29.8081 55.4625 32.0706 60.8865C34.333 66.3105 39.8467 65.0928 43.3053 62.5931C46.7639 60.0934 48.6152 56.0289 49.0256 53.1705C49.436 50.3121 48.0438 44.812 47.591 40.028C47.2892 36.8387 47.494 34.1042 48.2054 31.8245L47.1456 30.641L40.9077 29.002C39.9076 30.3134 39.5313 32.0358 39.7788 34.1692Z" fill="url(#elixir5_linear)"></path><path fill-rule="evenodd" clip-rule="evenodd" d="M42.0053 18.3188C39.9863 19.0759 38.0735 20.576 36.2667 22.8191C33.5565 26.1838 32.1762 28.2007 33.1979 34.8704C33.8791 39.3168 34.3666 43.4074 34.6606 47.1423L43.3975 24.6154C43.0763 23.4676 42.8092 22.4309 42.5961 21.5055C42.383 20.58 42.186 19.5178 42.0053 18.3188Z" fill="url(#elixir6_linear)"></path><path fill-rule="evenodd" clip-rule="evenodd" d="M43.3809 24.5703C41.1629 25.7192 39.4443 28.0729 38.2251 31.6315C37.0058 35.1902 35.8903 40.165 34.8787 46.5561C36.228 42.4911 37.123 39.5469 37.5639 37.7234C38.2251 34.9881 38.4509 31.1201 40.2066 28.4941C41.377 26.7434 42.4351 25.4355 43.3809 24.5703Z" fill="#CDCDCD" fill-opacity="0.316321"></path><path fill-rule="evenodd" clip-rule="evenodd" d="M33.1113 62.6987C36.7613 63.1613 38.6698 63.5725 38.837 63.9324C39.0878 64.4723 38.375 64.9661 36.349 64.6343C34.9983 64.4131 33.9191 63.7679 33.1113 62.6987Z" fill="white"></path><path fill-rule="evenodd" clip-rule="evenodd" d="M34.9452 18.3188C32.9376 20.4471 31.198 22.7034 29.7264 25.0878C28.2548 27.4721 27.2033 29.2509 26.5719 30.4242C26.3762 31.2993 26.2807 32.5905 26.2853 34.2978C26.29 36.0051 26.4564 37.9035 26.7846 39.9929C27.0719 35.9014 27.9514 31.93 29.4232 28.0786C30.895 24.2272 32.7356 20.9739 34.9452 18.3188Z" fill="#EDEDED" fill-opacity="0.603261"></path><defs><linearGradient id="elixir0_linear" x1="40.8103" y1="17.9658" x2="39.209" y2="65.9759" gradientUnits="userSpaceOnUse"><stop stop-color="#D9D8DC"></stop><stop offset="1" stop-color="white" stop-opacity="0.385275"></stop></linearGradient><linearGradient id="elixir1_linear" x1="41.7289" y1="17.9513" x2="24.3636" y2="60.8387" gradientUnits="userSpaceOnUse"><stop stop-color="#D8D8D8" stop-opacity="0.671932"></stop><stop offset="1" stop-color="#AFAFAF"></stop></linearGradient><linearGradient id="elixir2_linear" x1="44.1003" y1="31.3381" x2="44.1003" y2="64.564" gradientUnits="userSpaceOnUse"><stop stop-color="#D9D9D9" stop-opacity="0.761634"></stop><stop offset="1" stop-color="#B7B7B7" stop-opacity="0.277683"></stop></linearGradient><linearGradient id="elixir3_linear" x1="24.8895" y1="33.5855" x2="32.6002" y2="56.6017" gradientUnits="userSpaceOnUse"><stop stop-color="#9F9F9F" stop-opacity="0.45955"></stop><stop offset="1" stop-color="#959595" stop-opacity="0.539912"></stop></linearGradient><linearGradient id="elixir4_linear" x1="50.3669" y1="61.138" x2="26.7497" y2="39.0869" gradientUnits="userSpaceOnUse"><stop stop-color="#CDCDCD" stop-opacity="0.331182"></stop><stop offset="1" stop-color="#9D9D9D" stop-opacity="0.821388"></stop></linearGradient><linearGradient id="elixir5_linear" x1="44.9796" y1="31.6513" x2="29.424" y2="58.3173" gradientUnits="userSpaceOnUse"><stop stop-color="#838383" stop-opacity="0.145239"></stop><stop offset="1" stop-color="#F4F4F4" stop-opacity="0.233639"></stop></linearGradient><linearGradient id="elixir6_linear" x1="46.7473" y1="39.2634" x2="33.6689" y2="38.3638" gradientUnits="userSpaceOnUse"><stop stop-color="#CDCDCD" stop-opacity="0.356091"></stop><stop offset="1" stop-color="#999999" stop-opacity="0.581975"></stop></linearGradient></defs></svg>