<svg
  width="523"
  height="622"
  viewBox="0 0 523 622"
  fill="none"
  xmlns="http://www.w3.org/2000/svg"
>
  <path
    d="M291.993 196.682H293.493V195.182V115.814C293.493 52.7782 344.64 1.5 407.497 1.5C470.353 1.5 521.5 52.7782 521.5 115.814V359.793C521.5 392.467 497.527 419.622 466.301 424.52L464.222 424.846L465.208 426.705C470.071 435.868 472.838 446.309 472.838 457.389C472.838 496.004 460.522 534.117 447.895 563.027C435.275 591.921 422.395 611.511 421.369 613.055C418.276 617.706 413.07 620.5 407.497 620.5C401.923 620.5 396.717 617.706 393.625 613.055C392.598 611.512 379.719 591.921 367.101 563.027C354.475 534.117 342.16 496.004 342.16 457.389C342.16 446.309 344.927 435.868 349.79 426.705L350.776 424.846L348.697 424.52C317.466 419.622 293.493 392.467 293.493 359.793V329.223V327.723H291.993H231.011H229.511V329.223V359.793C229.511 392.467 205.538 419.622 174.308 424.52L172.228 424.846L173.215 426.705C178.078 435.868 180.844 446.309 180.844 457.389C180.844 496.004 168.528 534.117 155.901 563.027C143.282 591.921 130.402 611.511 129.375 613.055C126.283 617.706 121.077 620.5 115.503 620.5C109.93 620.5 104.724 617.706 101.631 613.055C100.605 611.511 87.7248 591.921 75.1053 563.027C62.4785 534.117 50.1624 496.004 50.1624 457.389C50.1624 446.31 52.9335 435.868 57.7964 426.705L58.783 424.846L56.7039 424.52C25.4731 419.622 1.5 392.467 1.5 359.793V115.814C1.5 52.7782 52.6466 1.5 115.503 1.5C178.36 1.5 229.507 52.7782 229.507 115.814V195.182V196.682H231.007H291.993ZM486.652 294.277H488.152V292.777V115.814C488.152 71.226 451.974 34.9453 407.497 34.9453C363.019 34.9453 326.841 71.226 326.841 115.814V292.777V294.277H328.341H486.652ZM194.659 294.277H196.159V292.777V115.814C196.159 71.226 159.981 34.9453 115.503 34.9453C71.0255 34.9453 34.8477 71.226 34.8477 115.814V292.777V294.277H36.3477H194.659ZM114.146 567.563L115.485 570.211L116.823 567.562C130.138 541.199 147.497 498.896 147.497 457.389C147.497 439.703 133.151 425.314 115.503 425.314C97.8556 425.314 83.5101 439.703 83.5101 457.389C83.5101 499.033 100.84 541.255 114.146 567.563ZM36.3477 327.723H34.8477V329.223V359.793C34.8477 377.478 49.1931 391.868 66.8362 391.868H164.17C181.819 391.868 196.159 377.478 196.159 359.793V329.223V327.723H194.659H36.3477ZM231.007 230.127H229.507V231.627V292.777V294.277H231.007H291.993H293.493V292.777V231.627V230.127H291.993H231.007ZM406.139 567.563L407.479 570.211L408.817 567.562C422.131 541.199 439.49 498.896 439.49 457.389C439.49 439.703 425.144 425.314 407.497 425.314C389.849 425.314 375.503 439.703 375.503 457.389C375.503 499.033 392.833 541.255 406.139 567.563ZM328.341 327.723H326.841V329.223V359.793C326.841 377.478 341.186 391.868 358.829 391.868H456.164C473.812 391.868 488.152 377.478 488.152 359.793V329.223V327.723H486.652H328.341Z"
    stroke="url(#paint0_linear)"
    strokeWidth="3"
  ></path>
  <defs>
    <linearGradient
      id="paint0_linear"
      x1="0"
      y1="0"
      x2="523.388"
      y2="621.673"
      gradientUnits="userSpaceOnUse"
    >
      <stop stopColor="#04D361" stopOpacity="0.4"></stop>
      <stop offset="1" stopColor="#0F3924" stopOpacity="0.2"></stop>
    </linearGradient>
  </defs>
</svg>