<svg width="81" height="80" viewBox="0 0 81 80" fill="none" xmlns="http://www.w3.org/2000/svg"><g clip-path="url(#clip0)"><path d="M75.8471 0H3.79709C1.58642 0 -0.205688 1.79086 -0.205688 4V76C-0.205688 78.2091 1.58642 80 3.79709 80H75.8471C78.0578 80 79.8499 78.2091 79.8499 76V4C79.8499 1.79086 78.0578 0 75.8471 0Z" fill="#8CC84B"></path><path d="M37.608 16.5121C38.7982 15.8308 40.3484 15.8278 41.5376 16.5121C47.5201 19.8925 53.5045 23.2677 59.486 26.6502C60.6111 27.2839 61.3636 28.5359 61.3522 29.8323V50.1703C61.3605 51.5203 60.5336 52.8023 59.3467 53.4217C53.3838 56.7835 47.424 60.1494 41.4622 63.5112C40.2474 64.2058 38.6661 64.1523 37.4892 63.4008C35.7015 62.3644 33.9108 61.3332 32.123 60.2979C31.7576 60.0802 31.3458 59.9068 31.0878 59.5526C31.3159 59.2452 31.7236 59.2069 32.0549 59.0727C32.8011 58.8354 33.4865 58.4546 34.172 58.0849C34.3454 57.9663 34.557 58.0118 34.7232 58.1179C36.2518 58.9944 37.767 59.8964 39.3008 60.7645C39.628 60.9534 39.9593 60.7026 40.239 60.5467C46.0904 57.2396 51.949 53.945 57.7994 50.6368C58.0162 50.5326 58.136 50.3025 58.1184 50.065C58.1225 43.3559 58.1194 36.6457 58.1204 29.9366C58.1452 29.6672 57.9893 29.4194 57.7457 29.3092C51.8035 25.9628 45.8644 22.6112 39.9232 19.2639C39.8203 19.1932 39.6984 19.1552 39.5735 19.155C39.4486 19.1548 39.3265 19.1924 39.2234 19.2629C33.2822 22.6112 27.3441 25.9658 21.403 29.3121C21.1602 29.4225 20.9973 29.6661 21.0262 29.9366C21.0272 36.6457 21.0262 43.3559 21.0262 50.066C21.0159 50.1819 21.0413 50.2981 21.0991 50.3991C21.1569 50.5 21.2442 50.5809 21.3493 50.6307C22.9347 51.5297 24.5222 52.4225 26.1086 53.3184C27.0024 53.7995 28.0997 54.0853 29.0844 53.7167C29.9534 53.4051 30.5625 52.5184 30.5459 51.5957C30.5541 44.9258 30.5418 38.2548 30.5521 31.5859C30.5304 31.2898 30.8112 31.0452 31.0991 31.0731C31.8609 31.0679 32.6237 31.0628 33.3855 31.0751C33.7034 31.0679 33.9223 31.3868 33.8829 31.6851C33.8799 38.3972 33.8911 45.1096 33.8778 51.8217C33.8799 53.6106 33.1449 55.5571 31.4903 56.4323C29.4518 57.4883 26.9323 57.2644 24.9185 56.2518C23.1751 55.3817 21.5113 54.3547 19.7989 53.4225C18.6089 52.8066 17.7861 51.5195 17.7945 50.1705V29.8323C17.782 28.5091 18.5644 27.2343 19.7245 26.6098C25.6864 23.2453 31.6472 19.8782 37.608 16.5121Z" fill="white"></path><path d="M42.8091 30.6007C45.4093 30.4334 48.193 30.5016 50.5328 31.7825C52.3444 32.7641 53.3488 34.8243 53.3807 36.837C53.3301 37.1084 53.0463 37.2582 52.7872 37.2396C52.0328 37.2385 51.2782 37.2498 50.5238 37.2344C50.2037 37.2468 50.0177 36.9517 49.9776 36.6688C49.7608 35.7058 49.2356 34.752 48.3292 34.2875C46.9378 33.5909 45.3245 33.6259 43.8073 33.6405C42.6997 33.6993 41.5087 33.7952 40.5703 34.4465C39.8499 34.9399 39.6311 35.9359 39.8882 36.738C40.1306 37.3139 40.7955 37.4998 41.3394 37.6711C44.473 38.4906 47.7936 38.4091 50.8674 39.4876C52.14 39.9273 53.3848 40.7821 53.8204 42.1145C54.3902 43.9003 54.1405 46.0348 52.8699 47.4685C51.8396 48.6482 50.339 49.2903 48.8423 49.6391C46.8512 50.0831 44.7848 50.0943 42.7628 49.8972C40.8615 49.6805 38.8828 49.1809 37.415 47.8854C36.1599 46.7956 35.5468 45.0975 35.6077 43.4586C35.6222 43.1818 35.8978 42.9888 36.163 43.0115C36.9227 43.0054 37.6824 43.0033 38.4421 43.0125C38.7456 42.9908 38.9705 43.2531 38.9861 43.5391C39.1263 44.4566 39.4711 45.4196 40.2711 45.9636C41.8152 46.9597 43.7526 46.8915 45.5206 46.9194C46.9854 46.8544 48.6296 46.8347 49.8249 45.8666C50.4555 45.3144 50.6424 44.3906 50.472 43.5958C50.2873 42.9248 49.5854 42.6122 48.9826 42.4077C45.8892 41.4292 42.5315 41.7842 39.468 40.6776C38.2243 40.2381 37.0217 39.4071 36.5438 38.1294C35.8771 36.321 36.1826 34.0843 37.5863 32.699C38.955 31.3211 40.9307 30.7905 42.8091 30.6005V30.6007Z" fill="white"></path></g><defs><clipPath id="clip0"><rect width="80.0556" height="80" fill="white"></rect></clipPath></defs></svg>