<svg width="81" height="80" viewBox="0 0 81 80" fill="none" xmlns="http://www.w3.org/2000/svg"><path d="M75.9309 0H3.99636C1.78923 0 0 1.78923 0 3.99636V75.9309C0 78.138 1.78923 79.9273 3.99636 79.9273H75.9309C78.138 79.9273 79.9273 78.138 79.9273 75.9309V3.99636C79.9273 1.78923 78.138 0 75.9309 0Z" fill="#2AC7E3"></path><path d="M42.0867 59.5458C41.5959 59.107 41.0804 58.6666 40.5897 58.1806C40.1972 58.5459 39.8295 58.8872 39.4371 59.2285C34.5783 63.4407 29.5733 65.1951 26.604 63.4894C23.7322 61.8573 22.8242 57.0329 23.9784 50.9664C24.1009 50.3083 24.2483 49.6505 24.4204 48.993C23.9048 48.8467 23.4141 48.7005 22.9233 48.5302C16.8129 46.4377 12.7886 43.024 12.7886 39.6127C12.7886 36.3245 16.5451 33.1322 22.407 31.0861C23.0696 30.8671 23.757 30.6473 24.4683 30.4523C24.2965 29.8185 24.1734 29.2102 24.0511 28.6251C22.8242 22.4596 23.6834 17.5392 26.5792 15.8831C29.5973 14.1287 34.6031 16.0046 39.6329 20.415C39.9271 20.6828 40.222 20.9745 40.5409 21.267C41.0077 20.829 41.4489 20.3878 41.9157 20.001C46.6777 15.8831 51.4118 14.1527 54.306 15.8096C57.324 17.5145 58.208 22.7793 56.8581 29.2821C56.7845 29.697 56.6862 30.0862 56.5887 30.501C57.2017 30.6721 57.8148 30.8663 58.3799 31.0605C64.3672 33.1075 68.2445 36.299 68.1957 39.6615C68.1957 43.0984 64.0491 46.4833 57.6933 48.5782C57.3496 48.6757 57.0067 48.7972 56.663 48.8979C56.8101 49.3855 56.9084 49.8722 57.0067 50.3598C58.2856 56.674 57.3017 61.8357 54.3324 63.5414C53.5426 63.9797 52.6505 64.2004 51.7475 64.1808C49.022 64.1816 45.5675 62.5119 42.0867 59.5458ZM46.8967 50.6043C45.4809 52.6527 43.9323 54.606 42.2609 56.4518C42.7269 56.9154 43.1929 57.331 43.6597 57.7187C47.708 61.1779 51.4382 62.4695 53.1798 61.4705C53.9903 61.0077 54.6768 59.8383 54.9965 58.06C55.3511 55.6425 55.251 53.1801 54.7016 50.7994C54.6281 50.3606 54.5298 49.9202 54.4067 49.459C51.9297 49.9979 49.4211 50.3794 46.8959 50.6011L46.8967 50.6043ZM26.3338 51.3844C25.3283 56.5733 26.0637 60.4474 27.8061 61.4465C28.6166 61.9093 29.9641 61.9093 31.6834 61.3002C33.9721 60.4104 36.0768 59.1054 37.8913 57.4509C38.2598 57.1584 38.6027 56.8171 38.9711 56.4766C37.2616 54.6288 35.6711 52.6744 34.2091 50.6251C31.6944 50.4295 29.195 50.072 26.7263 49.5549C26.5792 50.1871 26.4561 50.7954 26.333 51.3804L26.3338 51.3844ZM40.6152 54.7949C41.6951 53.6008 42.7733 52.2852 43.8547 50.8233C42.7749 50.8721 41.6463 50.8961 40.5177 50.8961C39.4131 50.8961 38.3336 50.8718 37.2791 50.8233C38.323 52.2017 39.4362 53.5262 40.6144 54.7917L40.6152 54.7949ZM35.4615 31.0118C34.5296 32.3514 33.6232 33.7645 32.7624 35.2479C31.9032 36.7098 31.1183 38.1964 30.4061 39.6815C31.1423 41.1434 31.9247 42.63 32.7864 44.1406C33.6456 45.6025 34.5536 47.0396 35.4855 48.4039C37.1048 48.5015 38.7985 48.5502 40.5161 48.5502C42.2577 48.5502 43.953 48.5015 45.5947 48.38C46.4787 47.0396 47.3859 45.6025 48.2451 44.1158C49.1043 42.6292 49.9132 41.1194 50.6253 39.6575C49.914 38.2188 49.1067 36.7338 48.2451 35.2479C47.3835 33.7621 46.4779 32.3482 45.5707 31.0118C43.9266 30.8895 42.233 30.816 40.5161 30.816C38.7993 30.816 37.1056 30.8903 35.4615 31.0118ZM27.3641 47.3113C29.0501 47.6695 30.7539 47.9381 32.4682 48.1162C31.8792 47.1898 31.2909 46.2643 30.7258 45.29C30.1863 44.3404 29.646 43.3893 29.1553 42.4398C28.4731 44.0311 27.8752 45.6572 27.3641 47.3113ZM50.3032 45.2644C49.7389 46.2387 49.1746 47.1651 48.6104 48.0667C50.3503 47.8631 52.0785 47.5697 53.788 47.1875C53.2533 45.5391 52.6306 43.9207 51.9225 42.3391C51.4099 43.3131 50.8712 44.2885 50.3064 45.2652L50.3032 45.2644ZM23.1679 33.3297C18.1629 35.0833 15.1448 37.6457 15.1448 39.6391C15.1448 40.5655 15.8314 41.7348 17.2053 42.9034C19.1454 44.4152 21.339 45.5701 23.6834 46.3138C24.1254 46.4601 24.5914 46.5824 25.0574 46.7287C25.8141 44.3256 26.7242 41.9736 27.7821 39.6871C26.7222 37.4381 25.82 35.1181 25.0822 32.7438C24.4198 32.9127 23.7818 33.108 23.1679 33.3297ZM53.2757 39.6391C54.3638 41.8963 55.2984 44.2242 56.0732 46.6072C56.3929 46.5105 56.7126 46.4122 57.0059 46.3146C62.4777 44.5115 65.8643 41.7588 65.889 39.6143C65.889 37.6162 62.7479 35.0345 57.619 33.2801C57.1042 33.1099 56.5399 32.9388 55.9757 32.7686C55.228 35.1149 54.326 37.4093 53.2757 39.6367V39.6391ZM50.2824 34.033C50.8467 35.0073 51.3862 35.9585 51.881 36.9104C52.5611 35.3623 53.1509 33.776 53.6474 32.1595C51.9784 31.7815 50.2914 31.4881 48.5928 31.2803C49.1778 32.1819 49.7421 33.0835 50.2824 34.033ZM27.3881 32.1308C27.8788 33.6893 28.4679 35.2735 29.1553 36.9056C29.646 35.9561 30.1863 35.0049 30.7258 34.0554C31.2653 33.1059 31.8296 32.1795 32.4187 31.2779C30.6523 31.5001 28.9842 31.7927 27.3881 32.1308ZM43.4614 21.7786C43.0442 22.1438 42.627 22.5339 42.2098 22.9239C43.9058 24.7448 45.472 26.6825 46.8967 28.7227C49.3899 28.9465 51.8652 29.3374 54.306 29.8928C54.4043 29.5275 54.4778 29.1615 54.5513 28.7962C55.7039 23.1933 54.9934 18.9044 53.1278 17.8334C52.7135 17.6191 52.2513 17.5146 51.7851 17.5296C49.7805 17.5288 46.7049 18.9819 43.4614 21.7786ZM27.7565 17.9037C26.0141 18.902 25.3275 22.8984 26.3578 28.1608C26.4801 28.7203 26.604 29.2797 26.7503 29.8656C29.1945 29.331 31.6695 28.9488 34.1611 28.7211C35.5909 26.6781 37.1653 24.7403 38.872 22.9223C38.6019 22.6538 38.3077 22.4108 38.0376 22.1662C34.6191 19.1578 31.3397 17.5696 29.1952 17.5696C28.6947 17.5533 28.1987 17.6685 27.7565 17.9037ZM43.8043 28.526C42.7904 27.159 41.7009 25.8496 40.5409 24.604C39.4371 25.7973 38.3325 27.1137 37.2527 28.526C38.3325 28.4773 39.4107 28.4533 40.5161 28.4533C41.6215 28.4533 42.7245 28.4789 43.8043 28.5268V28.526ZM35.6062 39.735C35.5994 38.7535 35.8842 37.792 36.4246 36.9726C36.9649 36.1532 37.7365 35.5127 38.6414 35.1323C39.5462 34.752 40.5437 34.6489 41.5072 34.8362C42.4707 35.0236 43.3569 35.4928 44.0534 36.1844C44.7499 36.8761 45.2253 37.759 45.4193 38.7212C45.6133 39.6834 45.5172 40.6815 45.1432 41.589C44.7691 42.4965 44.134 43.2725 43.3183 43.8186C42.5027 44.3646 41.5432 44.6561 40.5617 44.6562C39.9127 44.6601 39.2694 44.5357 38.6686 44.2902C38.0679 44.0447 37.5216 43.6829 37.0611 43.2256C36.6006 42.7683 36.235 42.2245 35.9853 41.6255C35.7357 41.0265 35.6068 40.384 35.6062 39.735Z" fill="#E6E6E6"></path></svg>